<?xml version="1.0" encoding="UTF-8"?>
<svg id="katman_1" data-name="katman 1" xmlns="http://www.w3.org/2000/svg" xmlns:xlink="http://www.w3.org/1999/xlink" viewBox="0 0 249.2 335.11">
  <defs>
    <style>
      .cls-1 {
        fill: url(#linear-gradient-2);
      }

      .cls-2 {
        stroke: url(#linear-gradient-6);
      }

      .cls-2, .cls-3, .cls-4, .cls-5 {
        fill: #262626;
        stroke-width: 2px;
      }

      .cls-6 {
        fill: url(#linear-gradient-11);
      }

      .cls-7 {
        fill: url(#linear-gradient-10);
      }

      .cls-8 {
        fill: #e90600;
      }

      .cls-3 {
        stroke: url(#linear-gradient-7);
      }

      .cls-9 {
        fill: url(#linear-gradient-9);
      }

      .cls-4 {
        stroke: url(#linear-gradient-5);
      }

      .cls-10 {
        fill: url(#linear-gradient-3);
      }

      .cls-5 {
        stroke: url(#linear-gradient);
      }

      .cls-11 {
        fill: url(#linear-gradient-4);
      }

      .cls-12 {
        fill: url(#linear-gradient-8);
      }
    </style>
    <linearGradient id="linear-gradient" x1="124.6" y1="305.84" x2="124.6" y2="36.55" gradientUnits="userSpaceOnUse">
      <stop offset="0" stop-color="#fff"/>
      <stop offset=".03" stop-color="#f0f0f0"/>
      <stop offset=".16" stop-color="#bdbdbd"/>
      <stop offset=".28" stop-color="#989898"/>
      <stop offset=".37" stop-color="#818181"/>
      <stop offset=".43" stop-color="#797979"/>
      <stop offset=".47" stop-color="#7d7d7d"/>
      <stop offset=".52" stop-color="#8a8a8a"/>
      <stop offset=".57" stop-color="#9f9f9f"/>
      <stop offset=".62" stop-color="#bebebe"/>
      <stop offset=".68" stop-color="#e4e4e4"/>
      <stop offset=".71" stop-color="#fff"/>
      <stop offset=".89" stop-color="#d5d5d5"/>
      <stop offset="1" stop-color="#c2c2c2"/>
    </linearGradient>
    <linearGradient id="linear-gradient-2" x1="82.6" y1="245.47" x2="174.97" y2="245.47" xlink:href="#linear-gradient"/>
    <linearGradient id="linear-gradient-3" x1="75.03" y1="190.39" x2="176.59" y2="190.39" xlink:href="#linear-gradient"/>
    <linearGradient id="linear-gradient-4" x1="70.95" y1="130.43" x2="173.14" y2="130.43" xlink:href="#linear-gradient"/>
    <linearGradient id="linear-gradient-5" x1="82.61" y1="245.47" x2="174.96" y2="245.47" xlink:href="#linear-gradient"/>
    <linearGradient id="linear-gradient-6" x1="75.03" y1="190.39" x2="176.53" y2="190.39" xlink:href="#linear-gradient"/>
    <linearGradient id="linear-gradient-7" x1="71" y1="130.43" x2="173.14" y2="130.43" xlink:href="#linear-gradient"/>
    <linearGradient id="linear-gradient-8" x1="201.11" y1="118.61" x2="245.1" y2="118.61" gradientTransform="translate(-139.56 56.07) rotate(-3.05) scale(1.16 .98)" xlink:href="#linear-gradient"/>
    <linearGradient id="linear-gradient-9" x1="1314.92" y1="842.08" x2="1358.92" y2="842.08" gradientTransform="translate(1713.12 965.95) rotate(176.95) scale(1.16 .98)" xlink:href="#linear-gradient"/>
    <linearGradient id="linear-gradient-10" x1="76.01" y1="285.52" x2="181.1" y2="285.52" xlink:href="#linear-gradient"/>
    <linearGradient id="linear-gradient-11" x1="84.87" y1="82.96" x2="84.87" y2="60.59" xlink:href="#linear-gradient"/>
  </defs>
  <g>
    <path class="cls-5" d="M197.21,95.66c-3.6-71.16-92.51-60.19-117.58-52.46-36.47,11.25-28.9,58.76-28.9,58.76l21.63,169.79c.25,2.23,.73,4.41,1.42,6.51,2.63,8.11,8.4,14.97,16.23,18.74,8.93,4.32,22.6,6.76,43.36,7.77,29.74,1.44,46.75-18.19,55.98-50.03,11.53-39.76,10.93-98.55,7.86-159.08Zm-45.22,197.39c-3.2,1.58-8.63,2.96-17.83,2.87-16.29-.17-28.95-2.47-33.71-3.47-1.79-.37-3.24-1.8-3.45-3.61-.19-1.69,.64-3.59,4.72-4.45,0,0,34.96-.97,45.95-3.99,5.49-1.51,7.7,.58,8.54,3.05,1.28,3.75-.66,7.85-4.22,9.6Z"/>
    <g>
      <g>
        <path class="cls-1" d="M118.57,272.11c-8.01,0-15.13-1.58-21.68-4.8-5.93-2.91-9.91-8.69-10.65-15.44l-3.63-29.05,92.36-3.98-.16,.97c-5.44,32.37-23.53,50.42-52.3,52.18-1.33,.08-2.64,.12-3.93,.12Zm-33.69-47.76l3.42,27.38c.68,6.15,4.39,11.6,9.69,14.2,7.21,3.55,15.18,5,24.36,4.44,27.79-1.7,44.7-18.45,50.25-49.8l-87.71,3.78Z"/>
        <path class="cls-10" d="M82.81,223.62l-7.78-62.24,97.84-4.21,.13,.74c4.08,23.43,4.69,43.98,1.81,61.09l-.11,.67-91.89,3.96Zm-5.51-60.71l7.38,59,88.19-3.8c2.7-16.65,2.09-36.57-1.8-59.24l-93.77,4.04Z"/>
        <path class="cls-11" d="M75.23,162.19l-1.45-11.6c-.32-1.38-8-35.49,3.38-47.56,2.31-2.45,5.26-3.85,8.79-4.17,7.71-.71,26.5,.41,44.08,6.39,15.67,5.33,35.37,16.26,40.24,38.11h0c1.02,4.59,1.94,9.21,2.73,13.74l.15,.87-1.12,.05-96.79,4.17Zm15.59-61.89c-1.81,0-3.38,.06-4.64,.18-2.98,.27-5.39,1.42-7.37,3.52-10.85,11.5-3.07,46.02-2.99,46.36l1.27,10.12,93.7-4.04c-.75-4.23-1.61-8.53-2.56-12.81-4.7-21.13-23.81-31.73-39.02-36.89-14.32-4.87-29.4-6.44-38.38-6.44Z"/>
      </g>
      <g>
        <g>
          <path class="cls-4" d="M87.26,251.79c.7,6.38,4.5,12.03,10.17,14.82,5.15,2.53,13.04,5.29,24.98,4.56,31.02-1.9,46.48-22.41,51.36-51.47l-90.04,3.88,3.53,28.21Z"/>
          <path class="cls-2" d="M171.96,158.02l-95.81,4.13,7.58,60.62,90.04-3.88c3-17.84,2.01-38.91-1.81-60.87Z"/>
          <path class="cls-3" d="M169.24,143.49c-8.96-40.28-68.98-45.12-83.18-43.83-22.48,2.04-11.26,50.84-11.26,50.84l1.35,10.83,95.81-4.13c-.79-4.54-1.7-9.12-2.72-13.71Z"/>
        </g>
        <path class="cls-12" d="M146.51,160.16l-46.11,1.93c-1.27,.05-2.12-.36-1.55-.76,.97-.68,2.39-1.59,3.74-2.11,7.67-2.96,36.38-3.58,44.46-3.7,1.2-.02,2.15,.28,2.18,.68l.19,2.84c.04,.55-1.26,1.05-2.91,1.12Z"/>
        <path class="cls-9" d="M104.57,219.74l46.11-1.93c1.27-.05,2.12,.36,1.55,.76-.97,.68-2.39,1.59-3.74,2.11-7.67,2.96-36.38,3.58-44.46,3.7-1.2,.02-2.15-.28-2.18-.68l-.19-2.84c-.04-.55,1.26-1.05,2.91-1.12Z"/>
      </g>
    </g>
    <path class="cls-7" d="M152.41,274.34c-18.88,5.68-53.19,4.64-72.2,4.09-3.15-.09-5.24,3.32-3.66,6.05,3.1,5.35,7.73,9.76,13.46,12.52,8.93,4.32,22.6,6.76,43.36,7.77,21.71,1.05,36.64-9.13,46.71-27.09,3.77-6.72-3.66-14.18-10.44-10.51-4.8,2.6-10.44,5.13-17.23,7.17Zm-.42,18.71c-3.2,1.58-8.63,2.96-17.83,2.87-16.29-.17-28.95-2.47-33.71-3.47-1.79-.37-3.24-1.8-3.45-3.61-.18-1.63,.58-3.46,4.31-4.36,.27-.06,.54-.1,.82-.11,3.92-.12,35.25-1.15,45.54-3.98,5.49-1.51,7.7,.58,8.54,3.05,1.28,3.75-.66,7.85-4.22,9.6Z"/>
    <circle class="cls-8" cx="160.9" cy="104.09" r="4.6"/>
  </g>
  <circle class="cls-6" cx="84.87" cy="71.77" r="11.19"/>
</svg>