<svg width="45" height="45" viewBox="0 0 45 45" fill="none" xmlns="http://www.w3.org/2000/svg">
<path d="M18.75 22.5C18.75 23.4946 19.1451 24.4484 19.8484 25.1516C20.5516 25.8549 21.5054 26.25 22.5 26.25C23.4946 26.25 24.4484 25.8549 25.1516 25.1516C25.8549 24.4484 26.25 23.4946 26.25 22.5C26.25 21.5054 25.8549 20.5516 25.1516 19.8484C24.4484 19.1451 23.4946 18.75 22.5 18.75C21.5054 18.75 20.5516 19.1451 19.8484 19.8484C19.1451 20.5516 18.75 21.5054 18.75 22.5Z" stroke="#00B5F9" stroke-width="3" stroke-linecap="round" stroke-linejoin="round"/>
<path d="M39.375 22.5C34.875 30 29.25 33.75 22.5 33.75C15.75 33.75 10.125 30 5.625 22.5C10.125 15 15.75 11.25 22.5 11.25C29.25 11.25 34.875 15 39.375 22.5Z" stroke="#00B5F9" stroke-width="3" stroke-linecap="round" stroke-linejoin="round"/>
</svg>
