<svg width="24" height="25" viewBox="0 0 24 25" fill="none" xmlns="http://www.w3.org/2000/svg">
<path d="M20 11.5C19.7554 9.74023 18.9391 8.10967 17.6766 6.85951C16.4142 5.60934 14.7758 4.80893 13.0137 4.58156C11.2516 4.3542 9.46362 4.71249 7.9252 5.60126C6.38678 6.49002 5.18325 7.85995 4.5 9.50001M4 5.50001V9.50001H8M4 13.5C4.24456 15.2598 5.06093 16.8903 6.32336 18.1405C7.58579 19.3907 9.22424 20.1911 10.9863 20.4184C12.7484 20.6458 14.5364 20.2875 16.0748 19.3988C17.6132 18.51 18.8168 17.1401 19.5 15.5M20 19.5V15.5H16" stroke="#00B5F9" stroke-width="2" stroke-linecap="round" stroke-linejoin="round"/>
</svg>
