<svg width="30" height="31" viewBox="0 0 30 31" fill="none" xmlns="http://www.w3.org/2000/svg">
<path d="M3.75 26.75V24.25C3.75 22.9239 4.27678 21.6521 5.21447 20.7145C6.15215 19.7768 7.42392 19.25 8.75 19.25H13.75C15.0761 19.25 16.3479 19.7768 17.2855 20.7145C18.2232 21.6521 18.75 22.9239 18.75 24.25V26.75M20 4.41251C21.0755 4.68788 22.0288 5.31338 22.7095 6.19039C23.3903 7.06741 23.7598 8.14604 23.7598 9.25626C23.7598 10.3665 23.3903 11.4451 22.7095 12.3221C22.0288 13.1991 21.0755 13.8246 20 14.1M26.25 26.75V24.25C26.2437 23.1464 25.8724 22.076 25.1941 21.2055C24.5158 20.335 23.5685 19.7134 22.5 19.4375M6.25 9.25C6.25 10.5761 6.77678 11.8479 7.71447 12.7855C8.65215 13.7232 9.92392 14.25 11.25 14.25C12.5761 14.25 13.8479 13.7232 14.7855 12.7855C15.7232 11.8479 16.25 10.5761 16.25 9.25C16.25 7.92392 15.7232 6.65215 14.7855 5.71447C13.8479 4.77678 12.5761 4.25 11.25 4.25C9.92392 4.25 8.65215 4.77678 7.71447 5.71447C6.77678 6.65215 6.25 7.92392 6.25 9.25Z" stroke="#00B5F9" stroke-width="2" stroke-linecap="round" stroke-linejoin="round"/>
</svg>
