<svg width="45" height="45" viewBox="0 0 45 45" fill="none" xmlns="http://www.w3.org/2000/svg">
<path d="M19.847 19.8506C19.1438 20.554 18.7489 21.508 18.7491 22.5025C18.7493 23.4971 19.1445 24.4509 19.8479 25.1541C20.5513 25.8572 21.5053 26.2522 22.4998 26.252C23.4944 26.2518 24.4482 25.8565 25.1514 25.1531M31.2769 31.2619C28.6467 32.9075 25.6025 33.7705 22.5 33.75C15.75 33.75 10.125 30 5.625 22.5C8.01 18.525 10.71 15.6037 13.725 13.7362M19.0875 11.5875C20.2107 11.3601 21.354 11.247 22.5 11.25C29.25 11.25 34.875 15 39.375 22.5C38.1262 24.5813 36.7894 26.3756 35.3662 27.8812M5.625 5.625L39.375 39.375" stroke="#00B5F9" stroke-width="3" stroke-linecap="round" stroke-linejoin="round"/>
</svg>
