<svg width="30" height="31" viewBox="0 0 30 31" fill="none" xmlns="http://www.w3.org/2000/svg">
<path d="M15 23.625L11.25 21.75M11.25 21.75L3.75 25.5V9.25L11.25 5.5M11.25 21.75V5.5M11.25 5.5L18.75 9.25M18.75 9.25L26.25 5.5V14.875M18.75 9.25V16.125M23.75 23V23.0125M26.4013 25.6513C26.9258 25.1269 27.2831 24.4587 27.4279 23.7312C27.5727 23.0038 27.4985 22.2497 27.2147 21.5644C26.9309 20.8791 26.4502 20.2934 25.8335 19.8813C25.2168 19.4692 24.4917 19.2492 23.75 19.2492C23.0083 19.2492 22.2832 19.4692 21.6665 19.8813C21.0498 20.2934 20.5691 20.8791 20.2853 21.5644C20.0015 22.2497 19.9274 23.0038 20.0721 23.7312C20.2169 24.4587 20.5742 25.1269 21.0988 25.6513C21.6213 26.175 22.505 26.9575 23.75 28C25.0637 26.8875 25.9488 26.105 26.4013 25.6513Z" stroke="#00B5F9" stroke-width="2" stroke-linecap="round" stroke-linejoin="round"/>
</svg>
