<svg width="25" height="18" viewBox="0 0 25 18" fill="none" xmlns="http://www.w3.org/2000/svg">
<path d="M6.38093 1.1675C6.85671 0.515336 7.58547 -0.0439968 8.43723 0.00938349C10.9043 0.00474172 13.3714 -0.00918357 15.8385 0.00938349C16.7854 -0.0184671 17.6256 0.589604 18.1037 1.37406C18.7652 2.41382 19.4498 3.435 20.153 4.44459C21.1 3.98273 22.1769 3.53712 23.2421 3.81331C24.1682 4.11734 24.4885 5.3242 23.9616 6.10402C23.5578 6.80028 22.7385 7.08575 21.9749 7.13217C22.3091 7.56849 22.771 8.00018 22.7315 8.59897C22.7548 10.0333 22.8105 11.4722 22.7083 12.9042C22.0306 13.554 21.3599 14.2944 20.4408 14.5892C18.8394 14.7864 17.2218 14.7911 15.6111 14.8027C15.0262 14.7563 14.5528 15.2065 13.9725 15.1833C12.7425 15.174 11.5147 15.174 10.287 15.1787C9.84137 15.1972 9.48859 14.8886 9.07547 14.7818C7.49263 14.7284 5.90979 14.7098 4.32695 14.6588C3.26863 14.6982 2.49577 13.8627 1.76702 13.2198C1.24018 12.7835 1.42353 12.0478 1.398 11.4536C1.44441 10.4301 1.3655 9.39967 1.47459 8.3808C1.5094 7.81915 1.99678 7.47102 2.32171 7.06718C1.45834 7.03933 0.474286 6.72601 0.128475 5.85336C-0.280001 4.99464 0.335033 3.87829 1.27499 3.77153C2.26137 3.60907 3.21061 4.02683 4.08558 4.43531C4.91878 3.39787 5.58023 2.23511 6.37629 1.16982L6.38093 1.1675ZM8.16569 1.52724C7.59011 1.99606 7.24198 2.67608 6.79405 3.25398C6.29274 4.01522 5.65217 4.68364 5.26227 5.51451C6.39254 5.61199 7.52745 5.5354 8.66004 5.53772C11.6679 5.53772 14.6758 5.54237 17.6859 5.54701C18.0991 5.55629 18.5075 5.49363 18.9137 5.40311C18.0921 4.04772 17.1846 2.72482 16.1634 1.50867C13.4991 1.4785 10.8324 1.48082 8.17033 1.52492L8.16569 1.52724ZM4.16217 8.20442C2.97388 8.48988 2.67448 10.2282 3.70031 10.8897C4.63099 11.6904 6.29274 10.834 6.12099 9.60159C6.13956 8.64538 5.05339 7.88413 4.16217 8.20442ZM18.9764 8.2694C18.0434 8.6245 17.6952 9.97525 18.4495 10.6785C19.1992 11.6091 20.8748 11.21 21.1278 10.0518C21.4968 8.8589 20.0741 7.71239 18.9764 8.27172V8.2694Z" fill="#54FFAC"/>
<path d="M2.15076 14.8676C2.61029 15.0974 3.04662 15.3759 3.52936 15.5569C4.19313 15.7032 4.88244 15.6521 5.55549 15.7124C5.48587 16.4226 5.33965 17.3463 4.59233 17.6504C3.82411 17.8709 2.80525 17.9103 2.28073 17.1978C2.06489 16.4458 2.20414 15.6382 2.14844 14.8676H2.15076Z" fill="#54FFAC"/>
<path d="M21.074 15.4525C21.371 15.3017 21.6472 15.1067 21.9327 14.9303C21.9164 15.6568 22.0023 16.3971 21.8607 17.1143C21.4151 17.9614 20.322 17.8662 19.5283 17.7107C18.7577 17.3765 18.6695 16.4459 18.5303 15.7241C19.3728 15.6196 20.2918 15.868 21.074 15.4502V15.4525Z" fill="#54FFAC"/>
</svg>
