<svg preserveAspectRatio="none" width="100%" height="100%" overflow="visible" style="display: block;" viewBox="0 0 9 9" fill="none" xmlns="http://www.w3.org/2000/svg">
<g id="Group">
<path id="Vector" d="M1.97378 2.07013H4.55271V3.88493H1.97378V2.07013Z" stroke="var(--stroke-0, white)" stroke-width="0.510412" stroke-linecap="round" stroke-linejoin="round"/>
<path id="Vector_2" d="M2.4043 5.6994H4.12358" stroke="var(--stroke-0, white)" stroke-width="0.510412" stroke-linecap="round" stroke-linejoin="round"/>
<path id="Vector_3" d="M0.685335 8.4218V1.16261C0.685335 0.921949 0.775904 0.691148 0.937118 0.520977C1.09833 0.350807 1.31699 0.255206 1.54498 0.255206H4.98354C5.21154 0.255206 5.43019 0.350807 5.5914 0.520977C5.75262 0.691148 5.84319 0.921949 5.84319 1.16261V8.4218" stroke="var(--stroke-0, white)" stroke-width="0.510412" stroke-linecap="round" stroke-linejoin="round"/>
<path id="Vector_4" d="M7.56171 1.16272L8.16947 1.80425C8.3307 1.97438 8.4213 2.20514 8.42135 2.44578V6.83397C8.42135 7.01446 8.35342 7.18756 8.23251 7.31519C8.1116 7.44281 7.94761 7.51452 7.77662 7.51452C7.60562 7.51452 7.44163 7.44281 7.32072 7.31519C7.19981 7.18756 7.13188 7.01446 7.13188 6.83397V6.15342C7.13188 6.03309 7.0866 5.91769 7.00599 5.8326C6.92539 5.74752 6.81606 5.69972 6.70206 5.69972H5.84242" stroke="var(--stroke-0, white)" stroke-width="0.510412" stroke-linecap="round" stroke-linejoin="round"/>
<path id="Vector_5" d="M8.42173 4.3384H7.61925C7.55832 4.33838 7.49808 4.32468 7.44254 4.29822C7.387 4.27176 7.33743 4.23314 7.29711 4.18491C7.25679 4.13669 7.22664 4.07997 7.20867 4.01851C7.1907 3.95705 7.18531 3.89226 7.19287 3.82844L7.30032 2.92104C7.31331 2.81133 7.36381 2.7104 7.44232 2.63721C7.52083 2.56403 7.62196 2.52363 7.7267 2.5236H8.42173" stroke="var(--stroke-0, white)" stroke-width="0.510412" stroke-linecap="round" stroke-linejoin="round"/>
<path id="Vector_6" d="M0.255206 8.42179H6.2727" stroke="var(--stroke-0, white)" stroke-width="0.510412" stroke-linecap="round" stroke-linejoin="round"/>
</g>
</svg>
