<svg preserveAspectRatio="none" width="100%" height="100%" overflow="visible" style="display: block;" viewBox="0 0 31 31" fill="none" xmlns="http://www.w3.org/2000/svg">
<g id="Group 82">
<path id="Vector" d="M30.6081 25.6494L18.8044 2.04102C18.1745 0.78223 16.9089 0 15.5007 0C14.093 0 12.8274 0.78223 12.1975 2.04102L0.393274 25.6494C-0.183386 26.8027 -0.122836 28.1455 0.554894 29.2422C1.23311 30.3389 2.40743 30.9941 3.69698 30.9941H27.3044C28.5944 30.9941 29.7692 30.3389 30.447 29.2422C31.1247 28.1455 31.1843 26.8018 30.6081 25.6494ZM27.8943 27.665C27.8191 27.7881 27.6413 27.9941 27.3044 27.9941H3.69698C3.36055 27.9941 3.18282 27.7881 3.10714 27.665C3.03097 27.543 2.92648 27.292 3.07687 26.9912L14.8806 3.38281C15.0534 3.03711 15.3718 3 15.5007 3C15.6296 3 15.948 3.03711 16.1208 3.38281L27.9245 26.9912C28.0749 27.292 27.9704 27.543 27.8943 27.665Z" fill="var(--fill-0, #54FFAC)"/>
<path id="Vector_2" d="M15.5007 8.45215C14.6721 8.45215 14.0007 9.12403 14.0007 9.95215V19.4883C14.0007 20.3164 14.6721 20.9883 15.5007 20.9883C16.3293 20.9883 17.0007 20.3164 17.0007 19.4883V9.95215C17.0007 9.12402 16.3294 8.45215 15.5007 8.45215ZM15.5007 22.3633C14.6721 22.3633 14.0007 23.0352 14.0007 23.8633V24.9521C14.0007 25.7803 14.6721 26.4521 15.5007 26.4521C16.3293 26.4521 17.0007 25.7803 17.0007 24.9521V23.8633C17.0007 23.0352 16.3294 22.3633 15.5007 22.3633Z" fill="var(--fill-0, #54FFAC)"/>
</g>
</svg>
