<svg width="12" height="16" viewBox="0 0 12 16" fill="none" xmlns="http://www.w3.org/2000/svg">
<path d="M12 6.00003C12 10.364 6.92313 15.4911 6.70725 15.7072C6.51968 15.8947 6.26533 16 6.00012 16C5.73492 16 5.48057 15.8947 5.293 15.7072C5.07688 15.4909 0 10.364 0 6.00003C0 4.40872 0.632141 2.88259 1.75736 1.75737C2.88258 0.632144 4.4087 0 6 0C7.5913 0 9.11742 0.632144 10.2426 1.75737C11.3679 2.88259 12 4.40872 12 6.00003ZM6 9.00004C6.59334 9.00004 7.17336 8.82409 7.66671 8.49444C8.16006 8.1648 8.54458 7.69626 8.77164 7.14808C8.9987 6.5999 9.05811 5.9967 8.94236 5.41475C8.8266 4.83281 8.54088 4.29826 8.12132 3.8787C7.70176 3.45914 7.16721 3.17341 6.58527 3.05766C6.00333 2.9419 5.40013 3.00131 4.85195 3.22837C4.30377 3.45544 3.83524 3.83996 3.50559 4.33331C3.17595 4.82666 3 5.40668 3 6.00003C2.99998 6.394 3.07757 6.78411 3.22833 7.1481C3.37909 7.51209 3.60006 7.84281 3.87864 8.12139C4.15722 8.39997 4.48795 8.62095 4.85193 8.77171C5.21591 8.92247 5.60603 9.00005 6 9.00004Z" fill="#54FFAC"/>
</svg>
