<?xml version="1.0" encoding="UTF-8"?>
<!DOCTYPE svg PUBLIC "-//W3C//DTD SVG 1.1//EN" "http://www.w3.org/Graphics/SVG/1.1/DTD/svg11.dtd">
<svg xmlns="http://www.w3.org/2000/svg" version="1.1" width="347px" height="139px" style="shape-rendering:geometricPrecision; text-rendering:geometricPrecision; image-rendering:optimizeQuality; fill-rule:evenodd; clip-rule:evenodd" xmlns:xlink="http://www.w3.org/1999/xlink">
<g><path style="opacity:0.999" fill="#4d5051" d="M 286.5,4.5 C 242.5,4.5 198.5,4.5 154.5,4.5C 175.31,2.95519 196.31,2.28853 217.5,2.5C 240.686,2.33242 263.686,2.99909 286.5,4.5 Z"/></g>
<g><path style="opacity:1" fill="#585c5d" d="M 286.5,4.5 C 290.798,5.19951 295.131,5.53284 299.5,5.5C 299.611,6.11742 299.944,6.61742 300.5,7C 306.726,9.00736 313.06,10.5074 319.5,11.5C 316.27,14.0631 313.27,17.0631 310.5,20.5C 307.845,24.8129 304.845,28.8129 301.5,32.5C 300.571,33.6888 300.238,35.0222 300.5,36.5C 299.325,36.719 298.325,36.3857 297.5,35.5C 295.391,31.3964 294.058,27.0631 293.5,22.5C 293.5,20.5 294.5,19.5 296.5,19.5C 297.649,19.2089 298.316,18.3756 298.5,17C 298.167,16.1667 297.833,15.3333 297.5,14.5C 293.576,12.5326 289.576,11.1993 285.5,10.5C 289.846,10.6657 294.179,10.499 298.5,10C 294.56,7.8603 290.56,6.02697 286.5,4.5 Z"/></g>
<g><path style="opacity:1" fill="#66696b" d="M 154.5,4.5 C 198.5,4.5 242.5,4.5 286.5,4.5C 290.56,6.02697 294.56,7.8603 298.5,10C 294.179,10.499 289.846,10.6657 285.5,10.5C 283.5,10.5 281.5,10.5 279.5,10.5C 216.311,5.63271 153.311,8.29938 90.5,18.5C 89.062,18.2811 87.7287,17.7811 86.5,17C 89.3093,15.9066 91.976,14.7399 94.5,13.5C 94.5,13.1667 94.5,12.8333 94.5,12.5C 114.415,9.17886 134.415,6.51219 154.5,4.5 Z"/></g>
<g><path style="opacity:1" fill="#3d3f3f" d="M 296.5,19.5 C 294.5,19.5 293.5,20.5 293.5,22.5C 291.686,22.7721 289.686,22.9387 287.5,23C 284.233,25.1287 280.899,26.962 277.5,28.5C 267.986,33.0621 257.986,36.5621 247.5,39C 245.998,39.5831 244.665,40.4164 243.5,41.5C 243.957,42.2975 244.624,42.6309 245.5,42.5C 243.109,44.3622 240.442,45.6955 237.5,46.5C 237.351,45.448 237.517,44.448 238,43.5C 241.213,39.8203 244.713,36.487 248.5,33.5C 244.214,28.4334 240.548,22.9334 237.5,17C 214.884,15.3758 192.217,15.0425 169.5,16C 161.96,16.3054 154.626,17.1388 147.5,18.5C 140.424,18.4463 133.424,19.1129 126.5,20.5C 130.151,18.3515 134.151,16.6848 138.5,15.5C 185.603,10.2236 232.936,9.05698 280.5,12C 285.715,12.3423 290.715,13.509 295.5,15.5C 296.429,16.6888 296.762,18.0222 296.5,19.5 Z"/></g>
<g><path style="opacity:0.017" fill="#141718" d="M 94.5,12.5 C 94.5,12.8333 94.5,13.1667 94.5,13.5C 86.2599,15.5725 77.9266,17.2392 69.5,18.5C 71.734,16.5541 74.4006,15.3874 77.5,15C 83.1263,13.8391 88.793,13.0058 94.5,12.5 Z"/></g>
<g><path style="opacity:1" fill="#595d5e" d="M 279.5,10.5 C 243.508,9.42467 207.508,9.25801 171.5,10C 142.765,13.4384 114.098,17.4384 85.5,22C 72.229,25.8732 58.8957,29.8732 45.5,34C 40.1705,37.4994 34.5039,40.1661 28.5,42C 25.5165,44.8258 22.1832,47.1591 18.5,49C 15.6667,51.8333 12.8333,54.6667 10,57.5C 9.27058,53.4578 10.7706,50.6244 14.5,49C 17.4234,46.5838 19.7567,43.7504 21.5,40.5C 27.614,35.9355 34.2807,32.1022 41.5,29C 50.9045,25.3696 60.2378,21.8696 69.5,18.5C 77.9266,17.2392 86.2599,15.5725 94.5,13.5C 91.976,14.7399 89.3093,15.9066 86.5,17C 87.7287,17.7811 89.062,18.2811 90.5,18.5C 153.311,8.29938 216.311,5.63271 279.5,10.5 Z"/></g>
<g><path style="opacity:1" fill="#222322" d="M 197.5,16.5 C 206.167,16.5 214.833,16.5 223.5,16.5C 224.936,19.5014 224.603,22.3347 222.5,25C 214.355,27.2446 206.188,29.4113 198,31.5C 193.667,30.8333 189.333,30.1667 185,29.5C 158.839,31.415 132.839,34.7483 107,39.5C 99.8328,39.4982 92.6661,39.1649 85.5,38.5C 84.4937,38.9377 84.4937,39.6043 85.5,40.5C 83.9255,41.6309 82.2588,41.7975 80.5,41C 81.1667,40.3333 81.8333,39.6667 82.5,39C 81.3595,38.2588 81.3595,37.4255 82.5,36.5C 80.6901,34.3766 79.3568,32.0433 78.5,29.5C 80.9925,28.2264 83.6592,27.5597 86.5,27.5C 84.9812,28.4098 83.3146,29.2432 81.5,30C 82.0712,31.2051 82.7379,32.3717 83.5,33.5C 85.3334,34.0521 87.0001,34.8855 88.5,36C 95.1667,36.6667 101.833,36.6667 108.5,36C 115.828,34.1845 123.161,32.1845 130.5,30C 137.614,29.481 144.614,28.3143 151.5,26.5C 154.481,26.9984 157.481,27.3317 160.5,27.5C 169.455,26.0093 178.455,24.8426 187.5,24C 190.466,22.7337 193.466,21.5671 196.5,20.5C 197.246,19.2638 197.579,17.9305 197.5,16.5 Z"/></g>
<g><path style="opacity:1" fill="#272827" d="M 223.5,16.5 C 230.842,16.2055 232.842,19.2055 229.5,25.5C 231.045,28.1974 230.379,30.1974 227.5,31.5C 221.57,32.7932 215.57,33.6266 209.5,34C 190.885,35.6541 172.218,36.6541 153.5,37C 134.624,40.221 115.624,42.3877 96.5,43.5C 94.7139,43.6962 93.3805,44.5295 92.5,46C 96.0473,46.1115 98.714,47.6115 100.5,50.5C 99.6319,52.397 98.2986,53.7304 96.5,54.5C 93.4281,54.8174 90.4281,54.4841 87.5,53.5C 78.4229,45.1413 67.7562,41.8079 55.5,43.5C 62.9473,44.8271 70.2806,46.6604 77.5,49C 84.0365,53.2751 83.0365,54.6084 74.5,53C 63.0115,45.7944 50.6782,43.2944 37.5,45.5C 35.1815,45.9925 33.1815,46.9925 31.5,48.5C 28.3566,50.2417 25.3566,52.2417 22.5,54.5C 21.7611,54.631 21.0944,54.4643 20.5,54C 25.7568,49.8867 31.0902,46.0534 36.5,42.5C 50.362,37.6627 64.362,33.3294 78.5,29.5C 79.3568,32.0433 80.6901,34.3766 82.5,36.5C 81.3595,37.4255 81.3595,38.2588 82.5,39C 81.8333,39.6667 81.1667,40.3333 80.5,41C 82.2588,41.7975 83.9255,41.6309 85.5,40.5C 84.4937,39.6043 84.4937,38.9377 85.5,38.5C 92.6661,39.1649 99.8328,39.4982 107,39.5C 132.839,34.7483 158.839,31.415 185,29.5C 189.333,30.1667 193.667,30.8333 198,31.5C 206.188,29.4113 214.355,27.2446 222.5,25C 224.603,22.3347 224.936,19.5014 223.5,16.5 Z"/></g>
<g><path style="opacity:1" fill="#2f302d" d="M 245.5,42.5 C 245.833,42.5 246.167,42.5 246.5,42.5C 248.429,42.2308 250.095,42.7308 251.5,44C 246.453,48.266 241.119,51.766 235.5,54.5C 218.523,55.6984 201.523,56.3651 184.5,56.5C 159.164,56.6666 133.831,56.5 108.5,56C 104.415,55.7668 100.415,55.2668 96.5,54.5C 98.2986,53.7304 99.6319,52.397 100.5,50.5C 98.714,47.6115 96.0473,46.1115 92.5,46C 93.3805,44.5295 94.7139,43.6962 96.5,43.5C 115.624,42.3877 134.624,40.221 153.5,37C 172.218,36.6541 190.885,35.6541 209.5,34C 215.57,33.6266 221.57,32.7932 227.5,31.5C 230.379,30.1974 231.045,28.1974 229.5,25.5C 232.842,19.2055 230.842,16.2055 223.5,16.5C 214.833,16.5 206.167,16.5 197.5,16.5C 180.845,17.4222 164.178,18.0888 147.5,18.5C 154.626,17.1388 161.96,16.3054 169.5,16C 192.217,15.0425 214.884,15.3758 237.5,17C 240.548,22.9334 244.214,28.4334 248.5,33.5C 244.713,36.487 241.213,39.8203 238,43.5C 237.517,44.448 237.351,45.448 237.5,46.5C 240.442,45.6955 243.109,44.3622 245.5,42.5 Z"/></g>
<g><path style="opacity:1" fill="#1d1f1d" d="M 197.5,16.5 C 197.579,17.9305 197.246,19.2638 196.5,20.5C 193.466,21.5671 190.466,22.7337 187.5,24C 178.455,24.8426 169.455,26.0093 160.5,27.5C 157.481,27.3317 154.481,26.9984 151.5,26.5C 144.614,28.3143 137.614,29.481 130.5,30C 123.161,32.1845 115.828,34.1845 108.5,36C 101.833,36.6667 95.1667,36.6667 88.5,36C 87.0001,34.8855 85.3334,34.0521 83.5,33.5C 82.7379,32.3717 82.0712,31.2051 81.5,30C 83.3146,29.2432 84.9812,28.4098 86.5,27.5C 99.7373,24.6527 113.071,22.3193 126.5,20.5C 133.424,19.1129 140.424,18.4463 147.5,18.5C 164.178,18.0888 180.845,17.4222 197.5,16.5 Z"/></g>
<g><path style="opacity:1" fill="#484a4c" d="M 299.5,5.5 C 308.362,6.36626 317.028,8.1996 325.5,11C 330.577,13.2573 334.91,16.424 338.5,20.5C 339.176,24.5144 337.843,27.5144 334.5,29.5C 332.43,35.9709 328.096,40.4709 321.5,43C 320.743,44.5122 319.743,45.8455 318.5,47C 312.516,48.0313 306.516,48.8646 300.5,49.5C 300.167,46.8333 299.833,44.1667 299.5,41.5C 300.117,41.6107 300.617,41.944 301,42.5C 302.694,38.6045 303.86,38.9378 304.5,43.5C 308.638,37.7192 312.805,32.0525 317,26.5C 320.608,25.3932 323.108,23.0598 324.5,19.5C 326.5,18.8333 328.5,18.1667 330.5,17.5C 327.713,13.863 324.046,11.863 319.5,11.5C 313.06,10.5074 306.726,9.00736 300.5,7C 299.944,6.61742 299.611,6.11742 299.5,5.5 Z"/></g>
<g><path style="opacity:1" fill="#424545" d="M 279.5,10.5 C 281.5,10.5 283.5,10.5 285.5,10.5C 289.576,11.1993 293.576,12.5326 297.5,14.5C 297.833,15.3333 298.167,16.1667 298.5,17C 298.316,18.3756 297.649,19.2089 296.5,19.5C 296.762,18.0222 296.429,16.6888 295.5,15.5C 290.715,13.509 285.715,12.3423 280.5,12C 232.936,9.05698 185.603,10.2236 138.5,15.5C 134.151,16.6848 130.151,18.3515 126.5,20.5C 113.071,22.3193 99.7373,24.6527 86.5,27.5C 83.6592,27.5597 80.9925,28.2264 78.5,29.5C 64.362,33.3294 50.362,37.6627 36.5,42.5C 29.209,44.0632 22.709,47.3966 17,52.5C 16.51,53.7932 16.3433,55.1266 16.5,56.5C 15.5,56.5 14.5,56.5 13.5,56.5C 12.9044,60.3578 11.2378,63.6911 8.5,66.5C 7.84727,70.2348 7.01394,73.9015 6,77.5C 4.99445,75.4664 4.49445,73.2998 4.5,71C 5,66.5 5.5,62 6,57.5C 6.98877,55.0302 8.15544,52.6968 9.5,50.5C 12.6187,46.0427 16.6187,42.7094 21.5,40.5C 19.7567,43.7504 17.4234,46.5838 14.5,49C 10.7706,50.6244 9.27058,53.4578 10,57.5C 12.8333,54.6667 15.6667,51.8333 18.5,49C 22.1832,47.1591 25.5165,44.8258 28.5,42C 34.5039,40.1661 40.1705,37.4994 45.5,34C 58.8957,29.8732 72.229,25.8732 85.5,22C 114.098,17.4384 142.765,13.4384 171.5,10C 207.508,9.25801 243.508,9.42467 279.5,10.5 Z"/></g>
<g><path style="opacity:1" fill="#646768" d="M 267.5,50.5 C 267.443,49.391 267.11,48.391 266.5,47.5C 266.414,46.5041 266.748,45.6708 267.5,45C 273.692,41.6227 279.692,37.956 285.5,34C 287.26,33.0347 287.594,31.868 286.5,30.5C 273.066,34.5203 259.732,38.5203 246.5,42.5C 246.167,42.5 245.833,42.5 245.5,42.5C 244.624,42.6309 243.957,42.2975 243.5,41.5C 244.665,40.4164 245.998,39.5831 247.5,39C 257.986,36.5621 267.986,33.0621 277.5,28.5C 282.16,26.9844 286.827,25.8177 291.5,25C 292.152,28.76 293.485,32.26 295.5,35.5C 295.167,35.8333 294.833,36.1667 294.5,36.5C 293.833,35.8333 293.167,35.1667 292.5,34.5C 290.861,37.4672 288.861,40.1339 286.5,42.5C 282.273,43.216 278.94,45.3827 276.5,49C 273.649,50.2886 270.649,50.7886 267.5,50.5 Z"/></g>
<g><path style="opacity:1" fill="#3d3f3e" d="M 338.5,20.5 C 339.167,20.8333 339.833,21.1667 340.5,21.5C 341.167,23.5 341.833,25.5 342.5,27.5C 342.213,34.6291 341.213,41.6291 339.5,48.5C 335.092,52.4537 330.259,55.787 325,58.5C 323.117,57.3474 322.284,55.6807 322.5,53.5C 318.149,52.1067 313.649,51.44 309,51.5C 306.5,51.8333 304,52.1667 301.5,52.5C 304.642,53.1674 307.642,53.834 310.5,54.5C 307.212,54.073 304.212,54.7397 301.5,56.5C 300.583,55.8728 299.583,55.5394 298.5,55.5C 299.85,54.1765 299.683,53.1765 298,52.5C 285.497,57.1621 280.497,66.1621 283,79.5C 284.409,83.4453 285.575,83.4453 286.5,79.5C 287.639,82.4336 289.306,85.1003 291.5,87.5C 291.678,88.6948 292.011,89.8615 292.5,91C 292.095,91.9454 291.428,92.6121 290.5,93C 299.039,97.5888 307.705,97.5888 316.5,93C 317.252,92.3292 317.586,91.4959 317.5,90.5C 320.908,85.9821 323.575,80.9821 325.5,75.5C 327.127,77.4637 329.127,78.797 331.5,79.5C 331.229,81.3797 331.896,82.713 333.5,83.5C 332.685,84.8366 331.518,85.8366 330,86.5C 329.421,87.9285 329.588,89.2618 330.5,90.5C 327.447,90.3185 324.447,90.1519 321.5,90C 318.905,93.3052 315.571,95.6385 311.5,97C 294.647,100.846 283.98,94.5124 279.5,78C 277.62,78.5098 275.787,78.3431 274,77.5C 272.855,79.9258 271.522,82.2591 270,84.5C 269.5,77.1742 269.334,69.8409 269.5,62.5C 270.15,62.8039 270.817,63.1373 271.5,63.5C 275.167,62.3333 278.833,61.1667 282.5,60C 286.238,56.3415 290.572,53.5082 295.5,51.5C 297.322,50.1336 298.322,48.3002 298.5,46C 298.039,43.8007 297.873,41.6341 298,39.5C 298.278,40.4158 298.778,41.0825 299.5,41.5C 299.833,44.1667 300.167,46.8333 300.5,49.5C 306.516,48.8646 312.516,48.0313 318.5,47C 319.743,45.8455 320.743,44.5122 321.5,43C 328.096,40.4709 332.43,35.9709 334.5,29.5C 337.843,27.5144 339.176,24.5144 338.5,20.5 Z"/></g>
<g><path style="opacity:1" fill="#454a4b" d="M 266.5,47.5 C 262.588,45.8485 258.588,45.5151 254.5,46.5C 258.016,47.2934 261.35,48.2934 264.5,49.5C 254.882,51.3705 245.215,53.0372 235.5,54.5C 241.119,51.766 246.453,48.266 251.5,44C 250.095,42.7308 248.429,42.2308 246.5,42.5C 259.732,38.5203 273.066,34.5203 286.5,30.5C 287.594,31.868 287.26,33.0347 285.5,34C 279.692,37.956 273.692,41.6227 267.5,45C 266.748,45.6708 266.414,46.5041 266.5,47.5 Z"/></g>
<g><path style="opacity:1" fill="#515354" d="M 319.5,11.5 C 324.046,11.863 327.713,13.863 330.5,17.5C 328.5,18.1667 326.5,18.8333 324.5,19.5C 323.108,23.0598 320.608,25.3932 317,26.5C 312.805,32.0525 308.638,37.7192 304.5,43.5C 303.86,38.9378 302.694,38.6045 301,42.5C 300.617,41.944 300.117,41.6107 299.5,41.5C 298.778,41.0825 298.278,40.4158 298,39.5C 297.873,41.6341 298.039,43.8007 298.5,46C 298.322,48.3002 297.322,50.1336 295.5,51.5C 290.572,53.5082 286.238,56.3415 282.5,60C 278.833,61.1667 275.167,62.3333 271.5,63.5C 270.817,63.1373 270.15,62.8039 269.5,62.5C 269.47,58.3821 268.803,54.3821 267.5,50.5C 270.649,50.7886 273.649,50.2886 276.5,49C 278.94,45.3827 282.273,43.216 286.5,42.5C 288.861,40.1339 290.861,37.4672 292.5,34.5C 293.167,35.1667 293.833,35.8333 294.5,36.5C 294.833,36.1667 295.167,35.8333 295.5,35.5C 293.485,32.26 292.152,28.76 291.5,25C 286.827,25.8177 282.16,26.9844 277.5,28.5C 280.899,26.962 284.233,25.1287 287.5,23C 289.686,22.9387 291.686,22.7721 293.5,22.5C 294.058,27.0631 295.391,31.3964 297.5,35.5C 298.325,36.3857 299.325,36.719 300.5,36.5C 300.238,35.0222 300.571,33.6888 301.5,32.5C 304.845,28.8129 307.845,24.8129 310.5,20.5C 313.27,17.0631 316.27,14.0631 319.5,11.5 Z"/></g>
<g><path style="opacity:1" fill="#47494a" d="M 96.5,54.5 C 100.415,55.2668 104.415,55.7668 108.5,56C 133.831,56.5 159.164,56.6666 184.5,56.5C 152.655,57.8388 120.655,57.6721 88.5,56C 79.4837,55.1463 70.4837,54.1463 61.5,53C 55.7539,51.5664 50.4206,49.2331 45.5,46C 42.854,45.5026 40.1873,45.3359 37.5,45.5C 50.6782,43.2944 63.0115,45.7944 74.5,53C 83.0365,54.6084 84.0365,53.2751 77.5,49C 70.2806,46.6604 62.9473,44.8271 55.5,43.5C 67.7562,41.8079 78.4229,45.1413 87.5,53.5C 90.4281,54.4841 93.4281,54.8174 96.5,54.5 Z"/></g>
<g><path style="opacity:1" fill="#303230" d="M 342.5,27.5 C 343.655,34.6549 343.822,41.9882 343,49.5C 340.916,59.1814 337.916,68.5148 334,77.5C 333.505,79.4727 333.338,81.4727 333.5,83.5C 331.896,82.713 331.229,81.3797 331.5,79.5C 329.127,78.797 327.127,77.4637 325.5,75.5C 326.136,64.4298 321.136,57.4298 310.5,54.5C 307.642,53.834 304.642,53.1674 301.5,52.5C 304,52.1667 306.5,51.8333 309,51.5C 313.649,51.44 318.149,52.1067 322.5,53.5C 322.284,55.6807 323.117,57.3474 325,58.5C 330.259,55.787 335.092,52.4537 339.5,48.5C 341.213,41.6291 342.213,34.6291 342.5,27.5 Z"/></g>
<g><path style="opacity:0.019" fill="#131415" d="M 340.5,21.5 C 344.554,25.3152 346.554,29.9818 346.5,35.5C 346.5,35.8333 346.5,36.1667 346.5,36.5C 344.484,39.4155 344.151,42.5822 345.5,46C 343.871,59.3774 339.871,71.8774 333.5,83.5C 333.338,81.4727 333.505,79.4727 334,77.5C 337.916,68.5148 340.916,59.1814 343,49.5C 343.822,41.9882 343.655,34.6549 342.5,27.5C 341.833,25.5 341.167,23.5 340.5,21.5 Z"/></g>
<g><path style="opacity:1" fill="#747777" d="M 37.5,45.5 C 40.1873,45.3359 42.854,45.5026 45.5,46C 50.4206,49.2331 55.7539,51.5664 61.5,53C 70.4837,54.1463 79.4837,55.1463 88.5,56C 120.655,57.6721 152.655,57.8388 184.5,56.5C 201.523,56.3651 218.523,55.6984 235.5,54.5C 245.215,53.0372 254.882,51.3705 264.5,49.5C 265.338,49.8417 265.672,50.5084 265.5,51.5C 265.838,54.8259 264.338,56.4925 261,56.5C 258.853,56.0441 256.686,55.7107 254.5,55.5C 234.863,57.5233 215.197,59.19 195.5,60.5C 154.465,61.0783 113.465,60.245 72.5,58C 64.0361,55.4179 55.3694,53.7512 46.5,53C 42.1321,52.2911 37.7988,52.4577 33.5,53.5C 29.6173,52.7032 28.9507,51.0366 31.5,48.5C 33.1815,46.9925 35.1815,45.9925 37.5,45.5 Z"/></g>
<g><path style="opacity:1" fill="#636769" d="M 31.5,48.5 C 28.9507,51.0366 29.6173,52.7032 33.5,53.5C 37.7988,52.4577 42.1321,52.2911 46.5,53C 55.3694,53.7512 64.0361,55.4179 72.5,58C 113.465,60.245 154.465,61.0783 195.5,60.5C 159.015,62.437 122.348,62.937 85.5,62C 74.4194,61.1607 63.4194,59.8274 52.5,58C 41.9231,57.1809 31.4231,57.3476 21,58.5C 20.5357,57.9056 20.369,57.2389 20.5,56.5C 21.5,56.1667 22.1667,55.5 22.5,54.5C 25.3566,52.2417 28.3566,50.2417 31.5,48.5 Z"/></g>
<g><path style="opacity:1" fill="#575b5d" d="M 265.5,51.5 C 267.136,55.2095 267.802,59.2095 267.5,63.5C 245.55,62.7494 223.55,63.2494 201.5,65C 163.167,65.6667 124.833,65.6667 86.5,65C 63.508,63.0322 40.8413,60.8655 18.5,58.5C 18.8333,57.5 19.5,56.8333 20.5,56.5C 20.369,57.2389 20.5357,57.9056 21,58.5C 31.4231,57.3476 41.9231,57.1809 52.5,58C 63.4194,59.8274 74.4194,61.1607 85.5,62C 122.348,62.937 159.015,62.437 195.5,60.5C 215.197,59.19 234.863,57.5233 254.5,55.5C 256.686,55.7107 258.853,56.0441 261,56.5C 264.338,56.4925 265.838,54.8259 265.5,51.5 Z"/></g>
<g><path style="opacity:1" fill="#414342" d="M 16.5,61.5 C 16.5,62.5 16.5,63.5 16.5,64.5C 26.88,65.1308 37.2133,65.1308 47.5,64.5C 64.3491,67.3841 81.3491,68.8841 98.5,69C 149.869,70.1293 201.203,69.296 252.5,66.5C 257.579,66.5248 262.579,66.8582 267.5,67.5C 267.66,69.1992 267.494,70.8659 267,72.5C 259.914,71.3544 252.747,71.1877 245.5,72C 239.836,72.0225 234.336,72.8558 229,74.5C 227.831,73.9915 226.998,73.1581 226.5,72C 224.5,71.8333 222.5,71.6667 220.5,71.5C 204.253,73.5492 187.92,75.2159 171.5,76.5C 167.313,77.5566 163.146,78.5566 159,79.5C 136.913,79.5045 114.746,79.0045 92.5,78C 78.2255,76.1284 63.8922,74.7951 49.5,74C 46.8807,73.8485 44.5473,73.0152 42.5,71.5C 34.7037,72.4383 27.2037,71.4383 20,68.5C 19.6924,69.3081 19.1924,69.9747 18.5,70.5C 17.2736,69.6371 15.9403,69.6371 14.5,70.5C 14.5,68.8333 14.5,67.1667 14.5,65.5C 14.6596,63.847 15.3263,62.5137 16.5,61.5 Z"/></g>
<g><path style="opacity:0.129" fill="#131516" d="M 69.5,18.5 C 60.2378,21.8696 50.9045,25.3696 41.5,29C 34.2807,32.1022 27.614,35.9355 21.5,40.5C 16.6187,42.7094 12.6187,46.0427 9.5,50.5C 4.69859,53.8334 2.19859,58.5 2,64.5C 1.26685,73.3098 3.60018,81.3098 9,88.5C 16.9886,97.0738 26.1553,104.074 36.5,109.5C 33.3093,108.908 30.3093,107.741 27.5,106C 18.7282,100.227 10.8949,93.3939 4,85.5C 3.09206,81.8068 1.59206,78.4734 -0.5,75.5C -0.5,71.8333 -0.5,68.1667 -0.5,64.5C 0.833333,64.1667 0.833333,63.8333 -0.5,63.5C -0.5,63.1667 -0.5,62.8333 -0.5,62.5C 3.35467,52.463 10.0213,44.6297 19.5,39C 25.8455,34.8256 32.5122,31.159 39.5,28C 48.2568,25.9769 56.4235,22.8102 64,18.5C 65.6395,17.8753 67.4729,17.8753 69.5,18.5 Z"/></g>
<g><path style="opacity:1" fill="#4b4e50" d="M 18.5,58.5 C 40.8413,60.8655 63.508,63.0322 86.5,65C 124.833,65.6667 163.167,65.6667 201.5,65C 223.55,63.2494 245.55,62.7494 267.5,63.5C 267.5,64.8333 267.5,66.1667 267.5,67.5C 262.579,66.8582 257.579,66.5248 252.5,66.5C 201.203,69.296 149.869,70.1293 98.5,69C 81.3491,68.8841 64.3491,67.3841 47.5,64.5C 37.2133,65.1308 26.88,65.1308 16.5,64.5C 16.5,63.5 16.5,62.5 16.5,61.5C 16.9321,60.2905 17.5987,59.2905 18.5,58.5 Z"/></g>
<g><path style="opacity:1" fill="#3c3d3a" d="M 266.5,47.5 C 267.11,48.391 267.443,49.391 267.5,50.5C 268.803,54.3821 269.47,58.3821 269.5,62.5C 268.717,66.6934 268.051,71.0268 267.5,75.5C 266.778,75.0825 266.278,74.4158 266,73.5C 260.322,75.1926 254.488,76.3592 248.5,77C 245.929,77.9009 243.596,79.2342 241.5,81C 239.19,81.4966 236.857,81.6633 234.5,81.5C 234.918,80.7784 235.584,80.2784 236.5,80C 234.333,79.8333 232.167,79.6667 230,79.5C 198.509,81.2817 167.009,82.4483 135.5,83C 94.8496,80.3254 54.6829,76.8254 15,72.5C 14.5357,71.9056 14.369,71.2389 14.5,70.5C 15.9403,69.6371 17.2736,69.6371 18.5,70.5C 19.1924,69.9747 19.6924,69.3081 20,68.5C 27.2037,71.4383 34.7037,72.4383 42.5,71.5C 44.5473,73.0152 46.8807,73.8485 49.5,74C 63.8922,74.7951 78.2255,76.1284 92.5,78C 114.746,79.0045 136.913,79.5045 159,79.5C 163.146,78.5566 167.313,77.5566 171.5,76.5C 187.92,75.2159 204.253,73.5492 220.5,71.5C 222.5,71.6667 224.5,71.8333 226.5,72C 226.998,73.1581 227.831,73.9915 229,74.5C 234.336,72.8558 239.836,72.0225 245.5,72C 252.747,71.1877 259.914,71.3544 267,72.5C 267.494,70.8659 267.66,69.1992 267.5,67.5C 267.5,66.1667 267.5,64.8333 267.5,63.5C 267.802,59.2095 267.136,55.2095 265.5,51.5C 265.672,50.5084 265.338,49.8417 264.5,49.5C 261.35,48.2934 258.016,47.2934 254.5,46.5C 258.588,45.5151 262.588,45.8485 266.5,47.5 Z"/></g>
<g><path style="opacity:1" fill="#373933" d="M 14.5,65.5 C 14.5,67.1667 14.5,68.8333 14.5,70.5C 14.369,71.2389 14.5357,71.9056 15,72.5C 54.6829,76.8254 94.8496,80.3254 135.5,83C 167.009,82.4483 198.509,81.2817 230,79.5C 232.167,79.6667 234.333,79.8333 236.5,80C 235.584,80.2784 234.918,80.7784 234.5,81.5C 186.663,84.1686 138.83,85.8352 91,86.5C 87.3793,84.3766 83.546,84.0433 79.5,85.5C 90.9269,88.7722 102.594,90.6055 114.5,91C 117.435,94.9005 121.435,96.4005 126.5,95.5C 126.5,96.5 126.5,97.5 126.5,98.5C 120.332,98.4572 114.332,97.4572 108.5,95.5C 108.5,94.1667 108.5,92.8333 108.5,91.5C 101.385,91.7348 94.3854,91.0682 87.5,89.5C 87.5,90.8333 87.5,92.1667 87.5,93.5C 80.9719,91.9596 74.3053,91.1263 67.5,91C 66.1667,90.3333 66.1667,89.6667 67.5,89C 66.6721,88.0853 65.6721,87.4186 64.5,87C 55.1168,85.8091 51.4502,85.9758 53.5,87.5C 53.5,88.8333 53.5,90.1667 53.5,91.5C 51.4727,91.3379 49.4727,91.5045 47.5,92C 48.5,92.3333 49.5,92.6667 50.5,93C 49,93.5 47.5,94 46,94.5C 38.1331,92.0421 30.2998,89.7087 22.5,87.5C 15.2484,81.6927 12.5818,74.3593 14.5,65.5 Z"/></g>
<g><path style="opacity:1" fill="#2a2c2c" d="M 298.5,55.5 C 288.259,60.153 284.259,68.153 286.5,79.5C 285.575,83.4453 284.409,83.4453 283,79.5C 280.497,66.1621 285.497,57.1621 298,52.5C 299.683,53.1765 299.85,54.1765 298.5,55.5 Z"/></g>
<g><path style="opacity:1" fill="#353530" d="M 267.5,75.5 C 267.725,79.0562 266.892,79.3895 265,76.5C 258.833,77.6667 252.667,78.8333 246.5,80C 236.958,85.2765 226.625,87.4431 215.5,86.5C 215.5,87.8333 215.5,89.1667 215.5,90.5C 220.28,90.8854 224.947,91.8854 229.5,93.5C 227.022,95.4363 227.022,97.4363 229.5,99.5C 222.858,100.331 216.191,100.831 209.5,101C 219.009,101.17 228.342,101.67 237.5,102.5C 235.5,102.5 233.5,102.5 231.5,102.5C 204.167,102.5 176.833,102.5 149.5,102.5C 136.836,102.1 124.169,101.767 111.5,101.5C 105.359,100.364 99.0256,99.6972 92.5,99.5C 79.4856,96.8491 77.1522,100.849 85.5,111.5C 78.5207,112.927 71.854,112.26 65.5,109.5C 68.5788,109.26 71.5788,109.593 74.5,110.5C 74.7104,107.614 74.8771,104.614 75,101.5C 75.4652,100.069 76.2986,98.9025 77.5,98C 77.1667,97.6667 76.8333,97.3333 76.5,97C 63.4309,96.3365 50.4309,96.6699 37.5,98C 32.0437,95.0261 27.0437,91.5261 22.5,87.5C 30.2998,89.7087 38.1331,92.0421 46,94.5C 47.5,94 49,93.5 50.5,93C 49.5,92.6667 48.5,92.3333 47.5,92C 49.4727,91.5045 51.4727,91.3379 53.5,91.5C 53.5,90.1667 53.5,88.8333 53.5,87.5C 51.4502,85.9758 55.1168,85.8091 64.5,87C 65.6721,87.4186 66.6721,88.0853 67.5,89C 66.1667,89.6667 66.1667,90.3333 67.5,91C 74.3053,91.1263 80.9719,91.9596 87.5,93.5C 87.5,92.1667 87.5,90.8333 87.5,89.5C 94.3854,91.0682 101.385,91.7348 108.5,91.5C 108.5,92.8333 108.5,94.1667 108.5,95.5C 114.332,97.4572 120.332,98.4572 126.5,98.5C 126.5,97.5 126.5,96.5 126.5,95.5C 121.435,96.4005 117.435,94.9005 114.5,91C 102.594,90.6055 90.9269,88.7722 79.5,85.5C 83.546,84.0433 87.3793,84.3766 91,86.5C 138.83,85.8352 186.663,84.1686 234.5,81.5C 236.857,81.6633 239.19,81.4966 241.5,81C 243.596,79.2342 245.929,77.9009 248.5,77C 254.488,76.3592 260.322,75.1926 266,73.5C 266.278,74.4158 266.778,75.0825 267.5,75.5 Z"/></g>
<g><path style="opacity:1" fill="#2a2c29" d="M 269.5,62.5 C 269.334,69.8409 269.5,77.1742 270,84.5C 271.522,82.2591 272.855,79.9258 274,77.5C 275.787,78.3431 277.62,78.5098 279.5,78C 283.98,94.5124 294.647,100.846 311.5,97C 315.571,95.6385 318.905,93.3052 321.5,90C 324.447,90.1519 327.447,90.3185 330.5,90.5C 330.5,90.8333 330.5,91.1667 330.5,91.5C 328.61,91.2965 327.11,91.9632 326,93.5C 316.511,112.359 301.345,124.192 280.5,129C 245.009,136.211 209.176,138.378 173,135.5C 169.833,135.667 166.667,135.833 163.5,136C 164.056,136.383 164.389,136.883 164.5,137.5C 145.171,137.24 126.171,135.24 107.5,131.5C 117.784,133.039 128.117,133.539 138.5,133C 127.304,131.456 116.304,129.623 105.5,127.5C 126.416,130.304 147.416,132.304 168.5,133.5C 174.813,133.014 180.979,133.014 187,133.5C 208.973,131.349 230.806,129.349 252.5,127.5C 259.507,126.416 266.507,125.249 273.5,124C 275.5,123 277.5,122 279.5,121C 281.211,119.867 281.711,118.367 281,116.5C 277.256,115.374 273.423,115.207 269.5,116C 268.833,116.667 268.167,117.333 267.5,118C 263.203,119.092 258.869,119.425 254.5,119C 252.766,114.886 251.266,110.719 250,106.5C 247.385,103.127 243.885,101.794 239.5,102.5C 238.833,102.5 238.167,102.5 237.5,102.5C 228.342,101.67 219.009,101.17 209.5,101C 216.191,100.831 222.858,100.331 229.5,99.5C 227.022,97.4363 227.022,95.4363 229.5,93.5C 224.947,91.8854 220.28,90.8854 215.5,90.5C 215.5,89.1667 215.5,87.8333 215.5,86.5C 226.625,87.4431 236.958,85.2765 246.5,80C 252.667,78.8333 258.833,77.6667 265,76.5C 266.892,79.3895 267.725,79.0562 267.5,75.5C 268.051,71.0268 268.717,66.6934 269.5,62.5 Z"/></g>
<g><path style="opacity:1" fill="#646767" d="M 291.5,87.5 C 299.486,94.1656 308.152,95.1656 317.5,90.5C 317.586,91.4959 317.252,92.3292 316.5,93C 307.705,97.5888 299.039,97.5888 290.5,93C 291.428,92.6121 292.095,91.9454 292.5,91C 292.011,89.8615 291.678,88.6948 291.5,87.5 Z"/></g>
<g><path style="opacity:1" fill="#1b1e1b" d="M 20.5,56.5 C 19.5,56.8333 18.8333,57.5 18.5,58.5C 17.5987,59.2905 16.9321,60.2905 16.5,61.5C 15.3263,62.5137 14.6596,63.847 14.5,65.5C 12.5818,74.3593 15.2484,81.6927 22.5,87.5C 27.0437,91.5261 32.0437,95.0261 37.5,98C 50.4309,96.6699 63.4309,96.3365 76.5,97C 76.8333,97.3333 77.1667,97.6667 77.5,98C 76.2986,98.9025 75.4652,100.069 75,101.5C 74.8771,104.614 74.7104,107.614 74.5,110.5C 71.5788,109.593 68.5788,109.26 65.5,109.5C 59.6446,108.437 53.978,106.77 48.5,104.5C 34.266,100.218 22.5994,92.2185 13.5,80.5C 9.76144,71.5567 11.0948,63.5567 17.5,56.5C 18.6136,55.2241 19.6136,55.2241 20.5,56.5 Z"/></g>
<g><path style="opacity:1" fill="#6c6f70" d="M 111.5,101.5 C 124.169,101.767 136.836,102.1 149.5,102.5C 174.337,103.167 199.337,103.833 224.5,104.5C 228.781,105.8 232.114,108.3 234.5,112C 233.009,114.022 233.342,115.688 235.5,117C 233.5,117.167 231.5,117.333 229.5,117.5C 188.525,113.42 147.525,109.587 106.5,106C 105.313,104.981 104.313,103.814 103.5,102.5C 106.086,101.52 108.753,101.187 111.5,101.5 Z"/></g>
<g><path style="opacity:1" fill="#626566" d="M 92.5,99.5 C 99.0256,99.6972 105.359,100.364 111.5,101.5C 108.753,101.187 106.086,101.52 103.5,102.5C 104.313,103.814 105.313,104.981 106.5,106C 147.525,109.587 188.525,113.42 229.5,117.5C 231.5,117.333 233.5,117.167 235.5,117C 233.342,115.688 233.009,114.022 234.5,112C 232.114,108.3 228.781,105.8 224.5,104.5C 199.337,103.833 174.337,103.167 149.5,102.5C 176.833,102.5 204.167,102.5 231.5,102.5C 232.968,103.779 233.635,105.446 233.5,107.5C 235.467,107.261 237.301,107.594 239,108.5C 238.954,111.8 238.788,115.134 238.5,118.5C 226.169,119.159 213.836,119.325 201.5,119C 167.642,115.85 133.976,112.017 100.5,107.5C 97.0381,106.518 93.3714,106.185 89.5,106.5C 88.3569,106.092 87.3569,105.425 86.5,104.5C 87.3094,102.929 87.6427,101.262 87.5,99.5C 89.1667,99.5 90.8333,99.5 92.5,99.5 Z"/></g>
<g><path style="opacity:1" fill="#444746" d="M 92.5,99.5 C 90.8333,99.5 89.1667,99.5 87.5,99.5C 87.6427,101.262 87.3094,102.929 86.5,104.5C 87.3569,105.425 88.3569,106.092 89.5,106.5C 95.9081,111.531 103.241,114.697 111.5,116C 105.833,116.333 100.167,116.667 94.5,117C 95.7375,117.232 96.7375,117.732 97.5,118.5C 79.7492,115.805 62.4159,111.471 45.5,105.5C 46.325,104.614 47.325,104.281 48.5,104.5C 53.978,106.77 59.6446,108.437 65.5,109.5C 71.854,112.26 78.5207,112.927 85.5,111.5C 77.1522,100.849 79.4856,96.8491 92.5,99.5 Z"/></g>
<g><path style="opacity:1" fill="#3a3c3a" d="M 13.5,80.5 C 22.5994,92.2185 34.266,100.218 48.5,104.5C 47.325,104.281 46.325,104.614 45.5,105.5C 62.4159,111.471 79.7492,115.805 97.5,118.5C 103.293,119.021 108.96,120.188 114.5,122C 120.157,122.499 125.824,122.666 131.5,122.5C 172.562,128.218 213.895,129.052 255.5,125C 262.226,123.921 268.893,122.588 275.5,121C 278.019,118.558 277.352,117.058 273.5,116.5C 271.892,118.262 269.892,119.428 267.5,120C 258.971,122.273 250.305,123.44 241.5,123.5C 242.524,120.445 243.857,117.445 245.5,114.5C 244.731,111.49 243.897,108.49 243,105.5C 242.015,104.186 240.848,103.186 239.5,102.5C 243.885,101.794 247.385,103.127 250,106.5C 251.266,110.719 252.766,114.886 254.5,119C 258.869,119.425 263.203,119.092 267.5,118C 268.167,117.333 268.833,116.667 269.5,116C 273.423,115.207 277.256,115.374 281,116.5C 281.711,118.367 281.211,119.867 279.5,121C 277.5,122 275.5,123 273.5,124C 266.507,125.249 259.507,126.416 252.5,127.5C 224.818,128.869 197.151,129.869 169.5,130.5C 167.383,129.468 165.217,129.468 163,130.5C 161,129.833 159,129.167 157,128.5C 151.288,128.819 145.621,129.153 140,129.5C 134.602,128.578 129.268,127.578 124,126.5C 121.576,126.53 119.243,126.863 117,127.5C 111.041,125.427 104.875,124.093 98.5,123.5C 96.8386,120.908 94.672,120.241 92,121.5C 90.3523,120.283 88.519,119.45 86.5,119C 73.9983,118.101 61.9983,115.101 50.5,110C 47.8333,109.667 45.1667,109.333 42.5,109C 33.8548,103.67 25.5215,98.0034 17.5,92C 14.0092,88.3617 11.3426,84.195 9.5,79.5C 9.83333,79.1667 10.1667,78.8333 10.5,78.5C 11.5178,79.1925 12.5178,79.8592 13.5,80.5 Z"/></g>
<g><path style="opacity:1" fill="#4f5354" d="M 89.5,106.5 C 93.3714,106.185 97.0381,106.518 100.5,107.5C 100.47,108.497 100.97,109.164 102,109.5C 111.15,113.163 120.65,114.996 130.5,115C 142.738,117.476 155.071,119.809 167.5,122C 155.638,122.421 143.805,121.921 132,120.5C 130.167,120.667 128.333,120.833 126.5,121C 128.382,121.198 130.048,121.698 131.5,122.5C 125.824,122.666 120.157,122.499 114.5,122C 108.96,120.188 103.293,119.021 97.5,118.5C 96.7375,117.732 95.7375,117.232 94.5,117C 100.167,116.667 105.833,116.333 111.5,116C 103.241,114.697 95.9081,111.531 89.5,106.5 Z"/></g>
<g><path style="opacity:1" fill="#31332f" d="M 36.5,42.5 C 31.0902,46.0534 25.7568,49.8867 20.5,54C 21.0944,54.4643 21.7611,54.631 22.5,54.5C 22.1667,55.5 21.5,56.1667 20.5,56.5C 19.6136,55.2241 18.6136,55.2241 17.5,56.5C 11.0948,63.5567 9.76144,71.5567 13.5,80.5C 12.5178,79.8592 11.5178,79.1925 10.5,78.5C 10.1667,78.8333 9.83333,79.1667 9.5,79.5C 11.3426,84.195 14.0092,88.3617 17.5,92C 25.5215,98.0034 33.8548,103.67 42.5,109C 45.1667,109.333 47.8333,109.667 50.5,110C 61.9983,115.101 73.9983,118.101 86.5,119C 88.519,119.45 90.3523,120.283 92,121.5C 94.672,120.241 96.8386,120.908 98.5,123.5C 104.875,124.093 111.041,125.427 117,127.5C 119.243,126.863 121.576,126.53 124,126.5C 129.268,127.578 134.602,128.578 140,129.5C 145.621,129.153 151.288,128.819 157,128.5C 159,129.167 161,129.833 163,130.5C 165.217,129.468 167.383,129.468 169.5,130.5C 197.151,129.869 224.818,128.869 252.5,127.5C 230.806,129.349 208.973,131.349 187,133.5C 180.979,133.014 174.813,133.014 168.5,133.5C 147.416,132.304 126.416,130.304 105.5,127.5C 81.7442,124.145 58.7442,118.145 36.5,109.5C 26.1553,104.074 16.9886,97.0738 9,88.5C 3.60018,81.3098 1.26685,73.3098 2,64.5C 2.19859,58.5 4.69859,53.8334 9.5,50.5C 8.15544,52.6968 6.98877,55.0302 6,57.5C 5.5,62 5,66.5 4.5,71C 4.49445,73.2998 4.99445,75.4664 6,77.5C 7.01394,73.9015 7.84727,70.2348 8.5,66.5C 11.2378,63.6911 12.9044,60.3578 13.5,56.5C 14.5,56.5 15.5,56.5 16.5,56.5C 16.3433,55.1266 16.51,53.7932 17,52.5C 22.709,47.3966 29.209,44.0632 36.5,42.5 Z"/></g>
<g><path style="opacity:1" fill="#595c5d" d="M 231.5,102.5 C 233.5,102.5 235.5,102.5 237.5,102.5C 238.167,102.5 238.833,102.5 239.5,102.5C 240.848,103.186 242.015,104.186 243,105.5C 243.897,108.49 244.731,111.49 245.5,114.5C 243.857,117.445 242.524,120.445 241.5,123.5C 250.305,123.44 258.971,122.273 267.5,120C 269.892,119.428 271.892,118.262 273.5,116.5C 277.352,117.058 278.019,118.558 275.5,121C 268.893,122.588 262.226,123.921 255.5,125C 213.895,129.052 172.562,128.218 131.5,122.5C 130.048,121.698 128.382,121.198 126.5,121C 128.333,120.833 130.167,120.667 132,120.5C 143.805,121.921 155.638,122.421 167.5,122C 155.071,119.809 142.738,117.476 130.5,115C 120.65,114.996 111.15,113.163 102,109.5C 100.97,109.164 100.47,108.497 100.5,107.5C 133.976,112.017 167.642,115.85 201.5,119C 213.836,119.325 226.169,119.159 238.5,118.5C 238.788,115.134 238.954,111.8 239,108.5C 237.301,107.594 235.467,107.261 233.5,107.5C 233.635,105.446 232.968,103.779 231.5,102.5 Z"/></g>
</svg>
