<svg width="73" height="36" viewBox="0 0 73 36" fill="none" xmlns="http://www.w3.org/2000/svg">
<path d="M69.6306 7.47662L44.3215 0.587122C40.154 -0.54143 35.7113 -0.0308209 31.9102 2.01358L20.7766 8.08362L4.56295 11.1186C3.35803 11.1186 2.20201 11.5941 1.34716 12.4413C0.492315 13.2885 0.00803278 14.4387 0 15.6408L0 24.7459C0 25.9533 0.480738 27.1112 1.33646 27.965C2.19218 28.8188 3.35278 29.2984 4.56295 29.2984H7.60492C7.9039 31.0587 8.81787 32.6565 10.1848 33.8087C11.5518 34.9609 13.2835 35.593 15.0729 35.593C16.8624 35.593 18.5941 34.9609 19.9611 33.8087C21.328 32.6565 22.242 31.0587 22.541 29.2984H50.1925C50.4914 31.0587 51.4054 32.6565 52.7724 33.8087C54.1393 34.9609 55.871 35.593 57.6605 35.593C59.4499 35.593 61.1816 34.9609 62.5486 33.8087C63.9156 32.6565 64.8295 31.0587 65.1285 29.2984H68.1705C69.3806 29.2984 70.5413 28.8188 71.397 27.965C72.2527 27.1112 72.7334 25.9533 72.7334 24.7459V11.7256C72.7201 10.7842 72.4146 9.87008 71.8589 9.10912C71.3032 8.34816 70.5247 7.7778 69.6306 7.47662ZM54.7554 6.59646V8.05327H52.626L51.4397 5.6556L54.7554 6.59646ZM33.4616 4.71475C36.388 3.15673 39.7795 2.70413 43.0134 3.44004H43.6218H44.1389L47.6068 4.38089L49.3103 7.81047H27.3777L33.4616 4.71475ZM15.2098 32.5459C14.3074 32.5459 13.4252 32.2789 12.6748 31.7786C11.9244 31.2784 11.3396 30.5674 10.9942 29.7355C10.6489 28.9036 10.5585 27.9883 10.7346 27.1052C10.9106 26.2221 11.3452 25.4109 11.9833 24.7742C12.6215 24.1375 13.4345 23.7039 14.3196 23.5283C15.2048 23.3526 16.1222 23.4428 16.956 23.7874C17.7898 24.1319 18.5024 24.7154 19.0038 25.4641C19.5052 26.2127 19.7728 27.0929 19.7728 27.9933C19.7728 29.2007 19.292 30.3587 18.4363 31.2125C17.5806 32.0662 16.42 32.5459 15.2098 32.5459ZM57.7974 32.5459C56.8949 32.5459 56.0127 32.2789 55.2623 31.7786C54.512 31.2784 53.9271 30.5674 53.5818 29.7355C53.2364 28.9036 53.146 27.9883 53.3221 27.1052C53.4982 26.2221 53.9327 25.4109 54.5709 24.7742C55.209 24.1375 56.0221 23.7039 56.9072 23.5283C57.7923 23.3526 58.7098 23.4428 59.5435 23.7874C60.3773 24.1319 61.0899 24.7154 61.5913 25.4641C62.0927 26.2127 62.3603 27.0929 62.3603 27.9933C62.3603 29.2007 61.8796 30.3587 61.0239 31.2125C60.1681 32.0662 59.0075 32.5459 57.7974 32.5459ZM69.9652 17.1583H68.4443C68.0409 17.1583 67.654 17.3182 67.3688 17.6028C67.0835 17.8874 66.9233 18.2734 66.9233 18.6758C66.9233 19.0783 67.0835 19.4643 67.3688 19.7489C67.654 20.0335 68.0409 20.1933 68.4443 20.1933H69.9652V24.7459C69.9652 25.1483 69.805 25.5343 69.5198 25.8189C69.2345 26.1035 68.8476 26.2634 68.4443 26.2634H65.1894C64.8012 24.6018 63.861 23.1202 62.5216 22.0596C61.1822 20.9989 59.5226 20.4216 57.8126 20.4216C56.1026 20.4216 54.4429 20.9989 53.1036 22.0596C51.7642 23.1202 50.824 24.6018 50.4358 26.2634H22.6018C22.2137 24.6018 21.2734 23.1202 19.9341 22.0596C18.5947 20.9989 16.935 20.4216 15.225 20.4216C13.5151 20.4216 11.8554 20.9989 10.516 22.0596C9.17667 23.1202 8.23643 24.6018 7.84827 26.2634H4.56295C4.15956 26.2634 3.77269 26.1035 3.48745 25.8189C3.20221 25.5343 3.04197 25.1483 3.04197 24.7459V20.1933H4.56295C4.96634 20.1933 5.35321 20.0335 5.63845 19.7489C5.92369 19.4643 6.08393 19.0783 6.08393 18.6758C6.08393 18.2734 5.92369 17.8874 5.63845 17.6028C5.35321 17.3182 4.96634 17.1583 4.56295 17.1583H3.04197V15.6408C3.0533 15.42 3.10932 15.2037 3.20664 15.005C3.30396 14.8063 3.44057 14.6293 3.60825 14.4847C3.77594 14.3401 3.97122 14.2309 4.18234 14.1635C4.39347 14.0962 4.61606 14.0722 4.83673 14.093L21.2938 11.0883H56.2764C56.6798 11.0883 57.0666 10.9284 57.3519 10.6438C57.6371 10.3592 57.7974 9.97325 57.7974 9.57078V7.41591L68.8397 10.4509C69.1334 10.5272 69.3974 10.6893 69.598 10.9164C69.7986 11.1436 69.9265 11.4254 69.9652 11.7256V17.1583ZM47.1505 20.1933H25.8567C25.4533 20.1933 25.0665 20.3532 24.7812 20.6378C24.496 20.9224 24.3357 21.3084 24.3357 21.7108C24.3357 22.1133 24.496 22.4993 24.7812 22.7839C25.0665 23.0685 25.4533 23.2284 25.8567 23.2284H47.1505C47.5539 23.2284 47.9407 23.0685 48.226 22.7839C48.5112 22.4993 48.6715 22.1133 48.6715 21.7108C48.6715 21.3084 48.5112 20.9224 48.226 20.6378C47.9407 20.3532 47.5539 20.1933 47.1505 20.1933Z" fill="#54FFAC"/>
</svg>
