<svg width="57" height="54" viewBox="0 0 57 54" fill="none" xmlns="http://www.w3.org/2000/svg">
<path d="M17.6266 0C12.5509 0 8.08857 3.23999 4.978 8.14318C1.86743 13.0464 0 19.683 0 27C0 34.3142 1.86743 40.9535 4.978 45.8567C8.08857 50.7626 12.5509 53.9999 17.6266 53.9999H36.6266C36.6374 54 36.6483 54 36.6591 53.9999C42.3999 53.9999 47.5434 50.849 51.1751 45.9431C54.8014 41.0372 57 34.352 57 27C57 19.6479 54.8041 12.9681 51.1751 8.06219C47.5706 3.19139 42.4704 0.0567004 36.7813 0.0108005C36.7408 0.00537171 36.7 0.00176754 36.6591 0H17.6266ZM17.6266 2.7H18.088C16.207 4.08779 14.516 5.93459 13.1154 8.14318C10.0049 13.0464 8.14286 19.683 8.14286 27C8.14286 34.3142 10.0049 40.9535 13.1154 45.8567C14.516 48.068 16.2097 49.9094 18.0934 51.2999H17.6266C13.7153 51.2999 10.0537 48.797 7.27428 44.4176C4.49486 40.0409 2.71429 33.8525 2.71429 27C2.71429 20.1474 4.49486 13.9671 7.27428 9.58498C10.051 5.21099 13.7153 2.7 17.6266 2.7ZM25.7694 2.7H27.7943C25.5873 4.1283 23.6612 5.9455 22.1106 8.06219C18.9349 12.3552 16.8557 18.0036 16.3861 24.273C16.3183 25.1694 16.2857 26.082 16.2857 27C16.2857 34.352 18.4816 41.0372 22.1106 45.9431C23.6624 48.0592 25.5905 49.8747 27.7997 51.2999H25.7694C21.8581 51.2999 18.1884 48.797 15.4117 44.4176C12.6323 40.0409 10.8571 33.8525 10.8571 27C10.8571 20.1474 12.6323 13.9671 15.4117 9.58498C18.1857 5.21099 21.8581 2.7 25.7694 2.7ZM36.6266 2.7C36.6374 2.70012 36.6483 2.70012 36.6591 2.7C41.4037 2.7 45.752 5.28929 48.9901 9.66598C52.2283 14.0427 54.2857 20.1852 54.2857 27C54.2857 33.8147 52.2283 39.9599 48.9901 44.3393C45.7493 48.716 41.4037 51.2999 36.6591 51.2999C36.6537 51.2999 36.6483 51.2999 36.6429 51.2999H36.6266C36.0349 51.2999 35.4459 51.2567 34.8677 51.1784C30.8126 50.6249 27.132 48.1706 24.2956 44.3393C21.0574 39.9599 19 33.8147 19 27C19 26.1495 19.0326 25.3017 19.095 24.4728C19.532 18.6732 21.4619 13.4973 24.2956 9.66598C27.5364 5.29199 31.882 2.7 36.6266 2.7ZM36.5994 5.40539C32.3516 5.40539 28.5651 7.81919 25.9296 11.502C23.2913 15.1821 21.7197 20.1609 21.7197 25.6338C21.7197 25.9918 21.8627 26.3352 22.1172 26.5883C22.3717 26.8415 22.7169 26.9838 23.0769 26.9838C23.4368 26.9838 23.782 26.8415 24.0365 26.5883C24.291 26.3352 24.434 25.9918 24.434 25.6338C24.434 20.682 25.8807 16.2189 28.139 13.068C30.3973 9.91438 33.3776 8.10538 36.5994 8.10538H36.6266C36.9865 8.10538 37.3317 7.96315 37.5862 7.70998C37.8407 7.45681 37.9837 7.11343 37.9837 6.75539C37.9837 6.39735 37.8407 6.05397 37.5862 5.8008C37.3317 5.54762 36.9865 5.40539 36.6266 5.40539H36.5994ZM36.6374 13.5C33.8417 13.5 31.4043 15.1983 29.7567 17.6607C28.1064 20.1231 27.1429 23.4009 27.1429 27C27.1429 30.599 28.1064 33.8822 29.7567 36.3419C31.4043 38.807 33.8417 40.4999 36.6374 40.4999H36.6483C39.444 40.4999 41.8869 38.807 43.5344 36.3419C45.1847 33.8822 46.1429 30.599 46.1429 27C46.1429 23.4009 45.1847 20.1231 43.5371 17.6607C41.8869 15.1983 39.444 13.5 36.6483 13.5H36.6374ZM36.6374 16.2H36.6483C38.3447 16.2 39.976 17.2233 41.2707 19.1592C42.5654 21.0924 43.4286 23.8869 43.4286 27C43.4286 30.113 42.5654 32.9129 41.2707 34.8461C39.976 36.782 38.3447 37.7999 36.6483 37.7999H36.6374C34.941 37.7999 33.3097 36.782 32.015 34.8461C30.7203 32.9129 29.8571 30.113 29.8571 27C29.8571 23.8869 30.7203 21.0924 32.015 19.1592C33.3097 17.2233 34.941 16.2 36.6374 16.2Z" fill="#54FFAC"/>
</svg>
