<svg width="29" height="20" viewBox="0 0 29 20" fill="none" xmlns="http://www.w3.org/2000/svg">
<path d="M12.4426 1.54606C12.8558 0.883053 13.4563 0.340075 14.1422 0C14.8446 0.294351 15.5939 0.717302 15.9134 1.4689C16.1586 2.28336 16.0236 3.15213 16.0567 3.98945C18.5138 4.6696 20.9902 5.26116 23.4694 5.84986C23.5025 5.11827 23.3675 4.35525 23.5631 3.64366C23.7834 3.0521 24.6319 3.17785 24.7861 3.75226C25.0093 4.53243 24.8495 5.36976 24.9211 6.17565C25.921 6.55288 27.0339 6.72434 27.9016 7.40449C28.3975 7.94747 28.0972 8.76479 28.0724 9.42494C27.0036 9.45066 25.9376 9.41065 24.8688 9.35921C24.6374 9.69929 24.3895 10.2851 23.8854 10.1194C23.6815 9.89647 23.5741 9.60212 23.4364 9.33921C20.9847 9.23061 18.5303 9.18203 16.0787 9.09344C15.8721 11.1568 15.638 13.2143 15.4259 15.2748C16.5332 16.1321 17.737 16.858 18.759 17.8297C18.759 18.3498 18.7562 18.8699 18.7452 19.3929C17.5056 19.21 16.3074 18.7699 15.0898 18.5355C14.7593 19.0385 14.448 19.5672 13.9907 19.9644C13.6932 19.49 13.4233 18.9985 13.101 18.5441C11.9385 18.8585 10.7871 19.2328 9.59431 19.4272C9.59155 18.887 9.58329 18.3498 9.58329 17.8125C10.6438 16.8866 11.8338 16.1264 12.9219 15.2377C12.6409 13.1915 12.404 11.1396 12.2029 9.08201C9.75683 9.18775 7.30796 9.24204 4.86184 9.33063C4.67177 9.67357 4.49547 10.0679 4.08779 10.1708C3.76274 9.95649 3.56716 9.59355 3.26966 9.34778C2.20086 9.3735 1.13482 9.43637 0.063264 9.41922C0.0825464 8.70478 -0.259029 7.72742 0.47095 7.27589C1.3607 6.72434 2.40471 6.5243 3.37158 6.14993C3.46524 5.28403 3.19804 4.30667 3.65807 3.53221C3.93353 2.99781 4.71309 3.29216 4.77369 3.82942C4.85909 4.49528 4.8095 5.16971 4.8343 5.84129C7.32724 5.29546 9.78989 4.60387 12.2718 4.0066C12.3379 3.18928 12.2498 2.34623 12.4426 1.54891V1.54606Z" fill="#797C83"/>
</svg>
