<svg width="36" height="15" viewBox="0 0 36 15" fill="none" xmlns="http://www.w3.org/2000/svg">
<path d="M11.2573 0C12.2349 0.00346641 13.2263 0.0693278 14.1761 0.322376C15.8642 0.866603 17.1017 2.20117 18.4675 3.25843C20.5716 3.36935 23.005 2.55128 24.811 4.00371C25.3171 4.32608 25.2201 4.98124 25.2582 5.5012C20.6652 6.47873 15.9613 6.83577 11.2816 7.09575C9.58654 7.16854 7.888 7.22747 6.18945 7.13041C7.71814 5.60519 9.73906 4.68659 11.24 3.13364C11.3059 2.09025 11.1984 1.03992 11.2573 0Z" fill="#797C83"/>
<path d="M33.064 5.68493C33.8543 5.5324 34.6446 5.36255 35.4419 5.26202C33.6498 8.45806 31.7675 11.6056 29.9754 14.7981C20.0302 14.8779 10.0886 14.7912 0.143428 14.8189C0.0325024 14.4896 -0.130419 14.1256 0.178092 13.8518C0.5282 13.3873 1.19375 13.5572 1.69291 13.4844C2.03262 11.8759 1.79344 10.2294 1.86277 8.60365C12.3279 8.86016 22.8138 7.8237 33.0605 5.68493H33.064Z" fill="#797C83"/>
</svg>
