<svg width="38" height="34" viewBox="0 0 38 34" fill="none" xmlns="http://www.w3.org/2000/svg">
<path d="M27.6091 22.4702C29.1844 20.3882 29.9581 17.8089 29.7887 15.2034C29.7647 14.8251 29.7227 14.4528 29.6566 14.0804C29.2964 11.9184 28.2876 9.85249 26.6183 8.18895C26.4802 8.05082 26.3361 7.9127 26.192 7.78658C25.8858 7.51633 25.5795 7.2701 25.2613 7.03589C21.4784 4.32137 16.3325 4.32137 12.5496 7.03589C12.2314 7.2641 11.9191 7.52234 11.6189 7.78658C11.4808 7.9187 11.3367 8.04482 11.1986 8.18295C9.59393 9.78087 8.52942 11.8409 8.15427 14.0744C8.09423 14.4467 8.04619 14.8251 8.02217 15.1974C7.83002 18.2242 8.88683 21.3111 11.1926 23.6112C13.3182 25.7492 16.1163 26.8122 18.9085 26.8122C21.2262 26.8122 23.538 26.0735 25.4775 24.6082L32.755 33.1541C32.9713 33.4073 33.2377 33.613 33.5373 33.7582C33.837 33.9035 34.1634 33.9852 34.4961 33.9982C34.8289 34.0111 35.1607 33.9551 35.4707 33.8336C35.7808 33.7121 36.0623 33.5278 36.2977 33.2922C37.2885 32.3013 37.2224 30.6678 36.1536 29.7549L27.6091 22.4702ZM25.1112 22.1098C21.6946 25.527 16.1283 25.527 12.7057 22.1098C9.28914 18.6867 9.28914 13.1195 12.7057 9.70235C14.411 7.99077 16.6567 7.13197 18.9085 7.13197C20.0601 7.13099 21.2006 7.35695 22.2649 7.79696C23.3292 8.23696 24.2964 8.88238 25.1112 9.69635C28.5338 13.1195 28.5338 18.6867 25.1112 22.1098Z" fill="#F2F2F2"/>
<path d="M20.8762 15.5188L20.7694 15.5067L19.3503 17.5626C19.2791 17.6712 19.1425 17.7314 19 17.7314C18.8575 17.7314 18.7269 17.6651 18.6556 17.5626L17.2366 15.5067L17.1297 15.5188C14.9031 15.7901 13.2228 17.7314 13.2228 20.0225V22H14.5588L14.4519 19.9803C14.44 19.7451 14.6241 19.5341 14.9031 19.516C15.105 19.516 15.2891 19.7029 15.3009 19.932L15.4137 22H22.5863L22.6991 19.932C22.7067 19.8185 22.7573 19.7124 22.8404 19.6359C22.9234 19.5595 23.0323 19.5187 23.1444 19.5221H23.1503C23.3819 19.5341 23.56 19.7391 23.5481 19.9803L23.4412 22H24.7772V20.0225C24.7712 17.7375 23.0969 15.8021 20.8762 15.5188ZM19 15.0666C20.4784 15.0666 21.6778 13.8427 21.6778 12.3475C21.6778 10.8523 20.4784 9.6284 19 9.6284C17.5216 9.6284 16.3222 10.8523 16.3222 12.3475C16.3222 13.8427 17.5216 15.0666 19 15.0666ZM11.2516 7.7172L11.4356 7.54838L11.2219 7.42177C10.5917 7.0557 9.89475 6.82389 9.17344 6.74049L9.06656 6.72843L7.35063 9.23049C7.27344 9.33298 7.14281 9.3993 7.00031 9.3993C6.85187 9.3993 6.72719 9.33901 6.65594 9.23049L4.92812 6.7224L4.80938 6.74049C2.06625 7.04194 0 9.3993 0 12.2209V14.6687H1.76344L1.63281 12.1666C1.62094 11.9315 1.79906 11.7265 2.07812 11.7145C2.28594 11.7145 2.47 11.9014 2.48187 12.1244L2.61844 14.6747H7.54063L7.56437 14.518C7.96219 12.1003 9.07844 9.90574 10.8003 8.15732C10.9488 8.00056 11.0972 7.86189 11.2516 7.7172ZM6.98844 6.29434C8.69844 6.29434 10.0878 4.88354 10.0878 3.14718C10.0878 1.41082 8.69844 1.91706e-05 6.98844 1.91706e-05C5.27844 1.91706e-05 3.88906 1.41082 3.88906 3.14718C3.88313 4.88354 5.27844 6.29434 6.98844 6.29434ZM33.1847 6.74049L33.0778 6.72843L31.3559 9.23652C31.3177 9.29319 31.2662 9.33937 31.2062 9.37094C31.1461 9.4025 31.0792 9.41846 31.0116 9.41739C30.875 9.41739 30.7444 9.34504 30.6612 9.23049L28.9334 6.7224L28.8266 6.73446C28.1081 6.81887 27.4194 7.04194 26.7781 7.40972L26.5584 7.53632L26.7484 7.71117C26.9028 7.84983 27.0513 7.99453 27.1997 8.14526C28.9156 9.88765 30.0319 12.0822 30.4238 14.5059L30.4475 14.6627H35.3697L35.5122 12.1124C35.5198 12.0004 35.5698 11.8958 35.6517 11.8205C35.7337 11.7452 35.8411 11.705 35.9516 11.7084H35.9575C36.1891 11.7205 36.3672 11.9255 36.3553 12.1606L36.2247 14.6627H38V12.2149C38 9.41136 35.9278 7.054 33.1847 6.74049ZM31.0056 6.29434C32.7156 6.29434 34.105 4.88354 34.105 3.14718C34.105 1.41082 32.7156 1.91706e-05 31.0056 1.91706e-05C29.2956 -0.00600987 27.9062 1.41082 27.9062 3.14718C27.9062 4.88354 29.2956 6.29434 31.0056 6.29434Z" fill="#F2F2F2"/>
</svg>
