<svg preserveAspectRatio="none" width="100%" height="100%" overflow="visible" style="display: block;" viewBox="0 0 12 9" fill="none" xmlns="http://www.w3.org/2000/svg">
<path id="Vector" d="M8.1704 8.71651L1.89427 8.71662C1.65207 8.71662 1.35137 8.73139 1.1153 8.70967C0.838987 8.68416 0.753125 8.43575 0.643789 8.22916C-0.44117 6.17951 -0.135786 3.77861 1.41631 2.00697C2.44095 0.837457 3.99529 0.0492421 5.61307 0.000926556C5.62292 -0.000394796 5.63331 0.000122322 5.64323 7.42159e-06C5.68135 0.056883 5.62778 1.23921 5.66214 1.41879C5.72714 1.75861 6.2771 1.77372 6.34436 1.41753C6.3685 1.28976 6.35026 1.11144 6.35026 0.97798L6.35062 0.000926556C6.6014 0.00167341 6.84093 0.0302261 7.08787 0.0699241C10.9695 0.695038 13.1639 4.93641 11.3419 8.23559C11.0899 8.69209 11.1325 8.71656 10.5751 8.71674L8.1704 8.71651ZM2.55296 1.86478C2.39096 1.88546 2.24757 2.0531 2.15344 2.16794C2.00209 2.3527 2.31951 2.55941 2.4556 2.69034C2.60483 2.83396 2.74937 3.02286 2.95837 3.08898C3.34816 3.11972 3.53777 2.72894 3.27543 2.47249C3.15977 2.35931 2.69373 1.8773 2.55296 1.86478ZM9.44606 1.89264C9.22775 1.93751 8.73824 2.43658 8.64046 2.58216C8.47001 2.83615 8.71987 3.10719 9.00258 3.08898C9.21285 3.04957 9.69392 2.55435 9.79571 2.4105C9.96768 2.16748 9.73612 1.86225 9.44606 1.89264ZM8.20397 3.88133C8.01868 3.92442 7.88004 4.11205 7.75051 4.23339L6.80049 5.11996C6.67242 5.23739 6.53767 5.35435 6.42031 5.48132C4.93705 5.07773 4.50621 6.78819 5.5511 7.27583C6.45254 7.65379 7.31335 6.838 6.91049 5.94012C7.19338 5.70365 7.44829 5.43208 7.71865 5.18252L8.27651 4.6626C8.38013 4.56666 8.49385 4.47916 8.58609 4.37276C8.76955 4.16129 8.53088 3.86663 8.20397 3.88133ZM0.954829 5.38555C0.892743 5.38561 0.794292 5.37452 0.746314 5.41743C0.715119 5.44536 0.690673 5.98119 0.771732 6.05588C0.885446 6.08265 1.79394 6.08047 1.90662 6.05243C2.22702 5.92294 2.24405 5.5197 1.91756 5.40899C1.78682 5.36464 1.14382 5.38561 0.954829 5.38555ZM10.1668 5.38555C9.96634 5.43226 9.81541 5.59978 9.86941 5.80189C9.95023 6.10465 10.1958 6.07139 10.4489 6.07001L11.0092 6.06955C11.1895 6.08409 11.2918 6.09586 11.3012 5.89169C11.3283 5.29823 11.3012 5.38521 10.7208 5.38526L10.1668 5.38555Z" fill="var(--fill-0, white)"/>
</svg>
