<svg preserveAspectRatio="none" width="100%" height="100%" overflow="visible" style="display: block;" viewBox="0 0 13 9" fill="none" xmlns="http://www.w3.org/2000/svg">
<g id="Group 29">
<path id="Vector" d="M12.8353 7.83791C12.8201 7.94134 12.7949 8.04225 12.7571 8.12045C12.689 8.2592 12.6234 8.27181 12.3661 8.2592C12.0331 8.24406 11.5563 8.2592 11.0518 8.27938C11.0518 8.41812 11.0568 8.48371 11.0568 8.48371C11.0896 8.86464 11.2611 8.87725 11.3293 8.87725H12.414C12.5099 8.87725 12.5982 8.87725 12.6663 8.83184C12.7546 8.77382 12.7924 8.6048 12.8252 8.30965C12.8302 8.26677 12.8328 8.21127 12.8353 8.14568V8.14315C12.8353 8.12297 12.8378 8.09775 12.8378 8.07V8.04225C12.8378 7.97414 12.8378 7.89846 12.8353 7.83791ZM0.0756477 7.83791C0.0907837 7.94134 0.11601 8.04225 0.15385 8.12045C0.221962 8.2592 0.287552 8.27181 0.544863 8.2592C0.877855 8.24406 1.35464 8.2592 1.85917 8.27938C1.85917 8.41812 1.85413 8.48371 1.85413 8.48371C1.82133 8.86464 1.64979 8.87725 1.58168 8.87725H0.496933C0.401071 8.87725 0.320346 8.87725 0.244666 8.83184C0.15385 8.77887 0.118533 8.6048 0.0857384 8.30965C0.080693 8.26677 0.0781704 8.21127 0.0756477 8.14568V8.14315C0.0756477 8.12297 0.073125 8.09775 0.073125 8.07V8.04225C0.0756477 7.97414 0.0756477 7.89846 0.0756477 7.83791Z" fill="var(--fill-0, white)"/>
<path id="Vector_2" d="M12.9161 5.45905C12.9161 4.68459 12.8152 3.92779 12.7748 3.84454C12.7445 3.784 12.5503 3.62507 12.1088 3.32487C11.6623 3.01963 11.6724 3.06504 11.5917 2.86575C11.6648 2.84304 11.7355 2.80016 11.7783 2.79511C11.8742 2.78502 11.8792 2.87584 12.0785 2.87584C12.2778 2.87584 12.7092 2.82286 12.7975 2.73457C12.8858 2.64627 12.9135 2.616 12.9135 2.5378C12.9135 2.4596 12.8681 2.29815 12.7824 2.20229C12.6966 2.10642 12.3308 2.05849 12.1164 2.03074C11.902 2.003 11.8717 2.03074 11.8162 2.06606C11.7279 2.12156 11.7228 2.62862 11.7228 2.62862L11.5135 2.63366C11.3772 2.29815 11.188 1.62207 10.8929 1.08979C10.57 0.509578 10.2319 0.327946 10.0907 0.282538C9.95193 0.239653 9.8258 0.209381 8.8798 0.11352C7.91362 0.0126133 7.14421 0 6.45804 0C5.77188 0 5.00247 0.015136 4.03629 0.11352C3.09029 0.211904 2.96415 0.239653 2.82541 0.282538C2.68666 0.325424 2.3461 0.509578 2.0232 1.08979C1.72805 1.62207 1.53885 2.29815 1.40262 2.63366L1.19324 2.62862C1.19324 2.62862 1.19072 2.12156 1.0999 2.06606C1.04441 2.03074 1.01413 2.00047 0.799707 2.03074C0.585281 2.06102 0.219495 2.10642 0.133724 2.20229C0.0479535 2.29815 0.00254555 2.4596 0.00254555 2.5378C0.00254555 2.616 0.0302949 2.6488 0.118588 2.73457C0.206881 2.82286 0.638257 2.87584 0.837547 2.87584C1.03684 2.87584 1.04188 2.78502 1.13774 2.79511C1.18063 2.80016 1.25379 2.84304 1.32442 2.86575C1.24117 3.06504 1.25379 3.01963 0.807275 3.32487C0.365809 3.62759 0.169041 3.784 0.141292 3.84454C0.100929 3.92779 2.28882e-05 4.68459 2.28882e-05 5.45905C2.28882e-05 6.2335 0.0555215 6.92976 0.0555215 7.17698C0.0555215 7.28041 0.0555215 7.46204 0.0782255 7.6361C0.0933615 7.73953 0.116065 7.84044 0.156428 7.91864C0.22454 8.05739 0.287607 8.07 0.547441 8.05739C0.880433 8.04225 1.36226 8.05739 1.85923 8.07757C2.19222 8.09018 2.53278 8.1028 2.8355 8.11037C3.5923 8.1255 3.3703 7.99937 3.6932 8.00441C4.0161 8.00946 5.29005 8.06243 6.45552 8.06243C7.62099 8.06243 8.89746 8.00946 9.21784 8.00441C9.54074 7.99937 9.31874 8.1255 10.0755 8.11037C10.3783 8.10532 10.7188 8.09018 11.0518 8.07757C11.5488 8.05991 12.0331 8.04225 12.3636 8.05739C12.6234 8.07 12.6865 8.05739 12.7546 7.91864C12.7925 7.84044 12.8177 7.73953 12.8328 7.6361C12.858 7.46204 12.8555 7.28041 12.8555 7.17698C12.8606 6.93228 12.9161 6.2335 12.9161 5.45905ZM2.17456 1.63973C2.29565 1.35719 2.65891 0.789594 2.8355 0.688687C2.87838 0.663461 3.25426 0.544896 4.19521 0.481829C5.06049 0.423808 6.01658 0.401104 6.46057 0.401104C6.90455 0.401104 7.86064 0.423808 8.72592 0.481829C9.66435 0.544896 10.0453 0.660938 10.0856 0.688687C10.3127 0.845093 10.6255 1.35719 10.7466 1.63973C10.8677 1.92227 11.0291 2.47726 10.9988 2.55294C10.9686 2.62862 11.0291 2.66646 10.6204 2.63366C10.2143 2.60339 7.66388 2.57059 6.46309 2.57059C5.26482 2.57059 2.71441 2.60339 2.30574 2.63366C1.89707 2.66393 1.95761 2.62862 1.92734 2.55294C1.89202 2.47726 2.05347 1.92479 2.17456 1.63973ZM3.1029 4.79811C2.92127 4.84352 2.81279 4.9419 2.58575 4.93938C2.35871 4.93938 1.74571 4.83595 1.61453 4.8309C1.48335 4.82586 1.36731 4.9192 1.29919 4.93685C1.23108 4.95451 1.09738 4.90658 0.895569 4.84352C0.693756 4.78045 0.57519 4.79811 0.509601 4.52314C0.441489 4.25069 0.509601 3.85968 0.509601 3.85968C0.946022 3.83949 1.36731 3.87986 2.1569 4.10185C2.94649 4.32385 3.38544 4.75018 3.38544 4.75018C3.38544 4.75018 3.28453 4.7527 3.1029 4.79811ZM9.03621 6.78597C8.67547 6.8339 7.16439 6.84651 6.45804 6.84651C5.7517 6.84651 4.24062 6.83137 3.87988 6.78597C3.51157 6.73804 3.03227 6.29657 3.36273 5.94592C3.80925 5.46914 3.726 5.48427 4.74011 5.35309C5.618 5.23957 6.28398 5.23453 6.45804 5.23453C6.62958 5.23453 7.29809 5.2421 8.17598 5.35309C9.19009 5.48427 9.10684 5.46914 9.55335 5.94592C9.88382 6.29657 9.40452 6.73804 9.03621 6.78597ZM12.4065 4.52566C12.3384 4.79811 12.2223 4.78297 12.0205 4.84604C11.8187 4.9091 11.685 4.95451 11.6169 4.93938C11.5488 4.92424 11.4327 4.8309 11.3016 4.83342C11.1704 4.83847 10.5574 4.9419 10.3303 4.9419C10.1033 4.9419 9.99482 4.84604 9.81319 4.80063C9.63155 4.75522 9.53065 4.75522 9.53065 4.75522C9.53065 4.75522 9.96707 4.32637 10.7592 4.1069C11.5488 3.8849 11.9701 3.84454 12.4065 3.86472C12.4065 3.85968 12.4746 4.25069 12.4065 4.52566Z" fill="var(--fill-0, white)"/>
</g>
</svg>
