<svg width="67" height="68" viewBox="0 0 67 68" fill="none" xmlns="http://www.w3.org/2000/svg">
<g id="Frame 69">
<g clip-path="url(#clip0_185_220)">
<rect y="0.512695" width="67" height="67" rx="8.34134" fill="black"/>
<g id="Rectangle 419">
<rect y="0.512695" width="67" height="67" rx="6.25601" fill="#D9D9D9" fill-opacity="0.04"/>
<rect x="1.04267" y="1.55536" width="64.9147" height="64.9147" rx="5.21334" stroke="white" stroke-opacity="0.08" stroke-width="2.08534"/>
</g>
<path id="Vector" d="M45.0518 25.8821C45.0518 26.1374 44.9503 26.3822 44.7698 26.5628C44.5893 26.7433 44.3444 26.8447 44.0891 26.8447H43.1265V44.1723C43.1265 44.6829 42.9236 45.1726 42.5626 45.5337C42.2015 45.8947 41.7118 46.0976 41.2012 46.0976H25.7989C25.2883 46.0976 24.7986 45.8947 24.4375 45.5337C24.0764 45.1726 23.8736 44.6829 23.8736 44.1723V26.8447H22.9109C22.6556 26.8447 22.4108 26.7433 22.2303 26.5628C22.0497 26.3822 21.9483 26.1374 21.9483 25.8821C21.9483 25.6268 22.0497 25.3819 22.2303 25.2014C22.4108 25.0208 22.6556 24.9194 22.9109 24.9194H44.0891C44.3444 24.9194 44.5893 25.0208 44.7698 25.2014C44.9503 25.3819 45.0518 25.6268 45.0518 25.8821ZM28.6868 22.9941H38.3132C38.5686 22.9941 38.8134 22.8927 38.9939 22.7122C39.1745 22.5317 39.2759 22.2868 39.2759 22.0315C39.2759 21.7762 39.1745 21.5313 38.9939 21.3508C38.8134 21.1703 38.5686 21.0688 38.3132 21.0688H28.6868C28.4315 21.0688 28.1866 21.1703 28.0061 21.3508C27.8256 21.5313 27.7242 21.7762 27.7242 22.0315C27.7242 22.2868 27.8256 22.5317 28.0061 22.7122C28.1866 22.8927 28.4315 22.9941 28.6868 22.9941Z" fill="#D9D9D9"/>
</g>
</g>
<defs>
<clipPath id="clip0_185_220">
<rect y="0.512695" width="67" height="67" rx="8.34134" fill="white"/>
</clipPath>
</defs>
</svg>
