<svg width="76" height="47" viewBox="0 0 76 47" fill="none" xmlns="http://www.w3.org/2000/svg">
<mask id="path-1-outside-1_52_464" maskUnits="userSpaceOnUse" x="0" y="0" width="76" height="47" fill="black">
<rect fill="white" width="76" height="47"/>
<path fill-rule="evenodd" clip-rule="evenodd" d="M15.4036 1.00166C15.0532 1.01921 14.724 1.17548 14.4886 1.43609C14.2532 1.6967 14.1308 2.0403 14.1483 2.39131C14.1658 2.74232 14.3218 3.07198 14.5821 3.30777C14.8423 3.54356 15.1853 3.66617 15.5358 3.64862H27.4075V8.94254H15.5358C15.1853 8.94254 14.8492 9.08198 14.6014 9.33018C14.3536 9.57838 14.2144 9.91501 14.2144 10.266V14.2365H10.2501C9.89962 14.2365 9.56351 14.3759 9.3157 14.6241C9.06788 14.8723 8.92866 15.2089 8.92866 15.5599V26.1478H3.64295V18.2069C3.64509 18.03 3.61179 17.8544 3.54501 17.6906C3.47823 17.5268 3.37934 17.378 3.25417 17.2532C3.129 17.1283 2.9801 17.0298 2.81627 16.9636C2.65245 16.8974 2.47703 16.8647 2.30038 16.8675C1.95083 16.8731 1.61773 17.0172 1.37402 17.2682C1.13031 17.5193 0.995858 17.8568 1.0001 18.2069V36.7356C1.0001 37.0866 1.13932 37.4233 1.38713 37.6715C1.63495 37.9197 1.97106 38.0591 2.32152 38.0591C2.67199 38.0591 3.0081 37.9197 3.25591 37.6715C3.50373 37.4233 3.64295 37.0866 3.64295 36.7356V28.7948H8.92866V39.3826C8.92866 39.7336 9.06788 40.0702 9.3157 40.3184C9.56351 40.5666 9.89962 40.7061 10.2501 40.7061H17.362L19.6401 45.2721C19.7504 45.4911 19.9192 45.6752 20.1278 45.8038C20.3364 45.9323 20.5766 46.0002 20.8215 46H57.8214C58.1719 46 58.508 45.8606 58.7558 45.6124C59.0037 45.3642 59.1429 45.0275 59.1429 44.6765V34.0887H64.4286V42.0296C64.4286 42.3806 64.5678 42.7172 64.8156 42.9654C65.0634 43.2136 65.3996 43.353 65.75 43.353H73.6786C74.029 43.353 74.3652 43.2136 74.613 42.9654C74.8608 42.7172 75 42.3806 75 42.0296V15.5599C75 15.2089 74.8608 14.8723 74.613 14.6241C74.3652 14.3759 74.029 14.2365 73.6786 14.2365H65.75C65.3996 14.2365 65.0634 14.3759 64.8156 14.6241C64.5678 14.8723 64.4286 15.2089 64.4286 15.5599V23.5008H58.5905L53.6827 14.9035C53.5672 14.7009 53.4003 14.5326 53.1989 14.4154C52.9974 14.2983 52.7687 14.2365 52.5357 14.2365H43.2858V10.266C43.2858 9.91501 43.1465 9.57838 42.8987 9.33018C42.6509 9.08198 42.3148 8.94254 41.9643 8.94254H30.0503V3.64862H41.9643C42.3148 3.64862 42.6509 3.50918 42.8987 3.26098C43.1465 3.01278 43.2858 2.67614 43.2858 2.32514C43.2858 1.97413 43.1465 1.63749 42.8987 1.38929C42.6509 1.14109 42.3148 1.00166 41.9643 1.00166H15.5358C15.4918 0.999448 15.4477 0.999448 15.4036 1.00166ZM16.8572 11.5895H40.6429V15.5599C40.6429 15.911 40.7821 16.2476 41.0299 16.4958C41.2778 16.744 41.6139 16.8834 41.9643 16.8834H51.7667L56.6745 25.4808C56.79 25.6833 56.9569 25.8517 57.1583 25.9688C57.3598 26.086 57.5885 26.1477 57.8214 26.1478H65.75C66.1005 26.1478 66.4366 26.0084 66.6844 25.7602C66.9322 25.512 67.0714 25.1753 67.0714 24.8243V16.8834H72.3571V40.7061H67.0714V32.7652C67.0714 32.4142 66.9322 32.0776 66.6844 31.8293C66.4366 31.5812 66.1005 31.4417 65.75 31.4417H57.8214C57.471 31.4417 57.1349 31.5812 56.8871 31.8293C56.6392 32.0776 56.5 32.4142 56.5 32.7652V43.353H21.6381L19.36 38.7923C19.2505 38.5723 19.082 38.3871 18.8733 38.2576C18.6647 38.1281 18.4241 38.0594 18.1786 38.0591H11.5715V16.8834H15.5358C15.8863 16.8834 16.2224 16.744 16.4702 16.4958C16.718 16.2476 16.8572 15.911 16.8572 15.5599V11.5895Z"/>
</mask>
<path fill-rule="evenodd" clip-rule="evenodd" d="M15.4036 1.00166C15.0532 1.01921 14.724 1.17548 14.4886 1.43609C14.2532 1.6967 14.1308 2.0403 14.1483 2.39131C14.1658 2.74232 14.3218 3.07198 14.5821 3.30777C14.8423 3.54356 15.1853 3.66617 15.5358 3.64862H27.4075V8.94254H15.5358C15.1853 8.94254 14.8492 9.08198 14.6014 9.33018C14.3536 9.57838 14.2144 9.91501 14.2144 10.266V14.2365H10.2501C9.89962 14.2365 9.56351 14.3759 9.3157 14.6241C9.06788 14.8723 8.92866 15.2089 8.92866 15.5599V26.1478H3.64295V18.2069C3.64509 18.03 3.61179 17.8544 3.54501 17.6906C3.47823 17.5268 3.37934 17.378 3.25417 17.2532C3.129 17.1283 2.9801 17.0298 2.81627 16.9636C2.65245 16.8974 2.47703 16.8647 2.30038 16.8675C1.95083 16.8731 1.61773 17.0172 1.37402 17.2682C1.13031 17.5193 0.995858 17.8568 1.0001 18.2069V36.7356C1.0001 37.0866 1.13932 37.4233 1.38713 37.6715C1.63495 37.9197 1.97106 38.0591 2.32152 38.0591C2.67199 38.0591 3.0081 37.9197 3.25591 37.6715C3.50373 37.4233 3.64295 37.0866 3.64295 36.7356V28.7948H8.92866V39.3826C8.92866 39.7336 9.06788 40.0702 9.3157 40.3184C9.56351 40.5666 9.89962 40.7061 10.2501 40.7061H17.362L19.6401 45.2721C19.7504 45.4911 19.9192 45.6752 20.1278 45.8038C20.3364 45.9323 20.5766 46.0002 20.8215 46H57.8214C58.1719 46 58.508 45.8606 58.7558 45.6124C59.0037 45.3642 59.1429 45.0275 59.1429 44.6765V34.0887H64.4286V42.0296C64.4286 42.3806 64.5678 42.7172 64.8156 42.9654C65.0634 43.2136 65.3996 43.353 65.75 43.353H73.6786C74.029 43.353 74.3652 43.2136 74.613 42.9654C74.8608 42.7172 75 42.3806 75 42.0296V15.5599C75 15.2089 74.8608 14.8723 74.613 14.6241C74.3652 14.3759 74.029 14.2365 73.6786 14.2365H65.75C65.3996 14.2365 65.0634 14.3759 64.8156 14.6241C64.5678 14.8723 64.4286 15.2089 64.4286 15.5599V23.5008H58.5905L53.6827 14.9035C53.5672 14.7009 53.4003 14.5326 53.1989 14.4154C52.9974 14.2983 52.7687 14.2365 52.5357 14.2365H43.2858V10.266C43.2858 9.91501 43.1465 9.57838 42.8987 9.33018C42.6509 9.08198 42.3148 8.94254 41.9643 8.94254H30.0503V3.64862H41.9643C42.3148 3.64862 42.6509 3.50918 42.8987 3.26098C43.1465 3.01278 43.2858 2.67614 43.2858 2.32514C43.2858 1.97413 43.1465 1.63749 42.8987 1.38929C42.6509 1.14109 42.3148 1.00166 41.9643 1.00166H15.5358C15.4918 0.999448 15.4477 0.999448 15.4036 1.00166ZM16.8572 11.5895H40.6429V15.5599C40.6429 15.911 40.7821 16.2476 41.0299 16.4958C41.2778 16.744 41.6139 16.8834 41.9643 16.8834H51.7667L56.6745 25.4808C56.79 25.6833 56.9569 25.8517 57.1583 25.9688C57.3598 26.086 57.5885 26.1477 57.8214 26.1478H65.75C66.1005 26.1478 66.4366 26.0084 66.6844 25.7602C66.9322 25.512 67.0714 25.1753 67.0714 24.8243V16.8834H72.3571V40.7061H67.0714V32.7652C67.0714 32.4142 66.9322 32.0776 66.6844 31.8293C66.4366 31.5812 66.1005 31.4417 65.75 31.4417H57.8214C57.471 31.4417 57.1349 31.5812 56.8871 31.8293C56.6392 32.0776 56.5 32.4142 56.5 32.7652V43.353H21.6381L19.36 38.7923C19.2505 38.5723 19.082 38.3871 18.8733 38.2576C18.6647 38.1281 18.4241 38.0594 18.1786 38.0591H11.5715V16.8834H15.5358C15.8863 16.8834 16.2224 16.744 16.4702 16.4958C16.718 16.2476 16.8572 15.911 16.8572 15.5599V11.5895Z" fill="#54FFAC"/>
<path fill-rule="evenodd" clip-rule="evenodd" d="M15.4036 1.00166C15.0532 1.01921 14.724 1.17548 14.4886 1.43609C14.2532 1.6967 14.1308 2.0403 14.1483 2.39131C14.1658 2.74232 14.3218 3.07198 14.5821 3.30777C14.8423 3.54356 15.1853 3.66617 15.5358 3.64862H27.4075V8.94254H15.5358C15.1853 8.94254 14.8492 9.08198 14.6014 9.33018C14.3536 9.57838 14.2144 9.91501 14.2144 10.266V14.2365H10.2501C9.89962 14.2365 9.56351 14.3759 9.3157 14.6241C9.06788 14.8723 8.92866 15.2089 8.92866 15.5599V26.1478H3.64295V18.2069C3.64509 18.03 3.61179 17.8544 3.54501 17.6906C3.47823 17.5268 3.37934 17.378 3.25417 17.2532C3.129 17.1283 2.9801 17.0298 2.81627 16.9636C2.65245 16.8974 2.47703 16.8647 2.30038 16.8675C1.95083 16.8731 1.61773 17.0172 1.37402 17.2682C1.13031 17.5193 0.995858 17.8568 1.0001 18.2069V36.7356C1.0001 37.0866 1.13932 37.4233 1.38713 37.6715C1.63495 37.9197 1.97106 38.0591 2.32152 38.0591C2.67199 38.0591 3.0081 37.9197 3.25591 37.6715C3.50373 37.4233 3.64295 37.0866 3.64295 36.7356V28.7948H8.92866V39.3826C8.92866 39.7336 9.06788 40.0702 9.3157 40.3184C9.56351 40.5666 9.89962 40.7061 10.2501 40.7061H17.362L19.6401 45.2721C19.7504 45.4911 19.9192 45.6752 20.1278 45.8038C20.3364 45.9323 20.5766 46.0002 20.8215 46H57.8214C58.1719 46 58.508 45.8606 58.7558 45.6124C59.0037 45.3642 59.1429 45.0275 59.1429 44.6765V34.0887H64.4286V42.0296C64.4286 42.3806 64.5678 42.7172 64.8156 42.9654C65.0634 43.2136 65.3996 43.353 65.75 43.353H73.6786C74.029 43.353 74.3652 43.2136 74.613 42.9654C74.8608 42.7172 75 42.3806 75 42.0296V15.5599C75 15.2089 74.8608 14.8723 74.613 14.6241C74.3652 14.3759 74.029 14.2365 73.6786 14.2365H65.75C65.3996 14.2365 65.0634 14.3759 64.8156 14.6241C64.5678 14.8723 64.4286 15.2089 64.4286 15.5599V23.5008H58.5905L53.6827 14.9035C53.5672 14.7009 53.4003 14.5326 53.1989 14.4154C52.9974 14.2983 52.7687 14.2365 52.5357 14.2365H43.2858V10.266C43.2858 9.91501 43.1465 9.57838 42.8987 9.33018C42.6509 9.08198 42.3148 8.94254 41.9643 8.94254H30.0503V3.64862H41.9643C42.3148 3.64862 42.6509 3.50918 42.8987 3.26098C43.1465 3.01278 43.2858 2.67614 43.2858 2.32514C43.2858 1.97413 43.1465 1.63749 42.8987 1.38929C42.6509 1.14109 42.3148 1.00166 41.9643 1.00166H15.5358C15.4918 0.999448 15.4477 0.999448 15.4036 1.00166ZM16.8572 11.5895H40.6429V15.5599C40.6429 15.911 40.7821 16.2476 41.0299 16.4958C41.2778 16.744 41.6139 16.8834 41.9643 16.8834H51.7667L56.6745 25.4808C56.79 25.6833 56.9569 25.8517 57.1583 25.9688C57.3598 26.086 57.5885 26.1477 57.8214 26.1478H65.75C66.1005 26.1478 66.4366 26.0084 66.6844 25.7602C66.9322 25.512 67.0714 25.1753 67.0714 24.8243V16.8834H72.3571V40.7061H67.0714V32.7652C67.0714 32.4142 66.9322 32.0776 66.6844 31.8293C66.4366 31.5812 66.1005 31.4417 65.75 31.4417H57.8214C57.471 31.4417 57.1349 31.5812 56.8871 31.8293C56.6392 32.0776 56.5 32.4142 56.5 32.7652V43.353H21.6381L19.36 38.7923C19.2505 38.5723 19.082 38.3871 18.8733 38.2576C18.6647 38.1281 18.4241 38.0594 18.1786 38.0591H11.5715V16.8834H15.5358C15.8863 16.8834 16.2224 16.744 16.4702 16.4958C16.718 16.2476 16.8572 15.911 16.8572 15.5599V11.5895Z" stroke="#54FFAC" stroke-width="2" mask="url(#path-1-outside-1_52_464)"/>
</svg>
